<?xml version="1.0" encoding="utf-8"?>
<!-- Generator: Adobe Illustrator 22.0.1, SVG Export Plug-In . SVG Version: 6.00 Build 0)  -->
<svg version="1.1" id="Слой_1" xmlns="http://www.w3.org/2000/svg" xmlns:xlink="http://www.w3.org/1999/xlink" x="0px" y="0px"
	 viewBox="0 0 2486.5 1830.1" style="enable-background:new 0 0 2486.5 1830.1;" xml:space="preserve">
<style type="text/css">
	.st0{fill:#9E4539;stroke:#000000;stroke-width:8;stroke-linejoin:round;stroke-miterlimit:10;}
	.st1{fill:#CD683D;stroke:#000000;stroke-width:8;stroke-linejoin:round;stroke-miterlimit:10;}
	.st2{fill:#91DB69;stroke:#000000;stroke-width:8;stroke-linejoin:round;stroke-miterlimit:10;}
	.st3{fill:#239063;stroke:#000000;stroke-width:8;stroke-linejoin:round;stroke-miterlimit:10;}
	.st4{fill:#1EBC73;stroke:#000000;stroke-width:8;stroke-linejoin:round;stroke-miterlimit:10;}
	.st5{fill:#8FD3FF;stroke:#000000;stroke-width:8;stroke-linejoin:round;stroke-miterlimit:10;}
	.st6{fill:#4D65B4;stroke:#000000;stroke-width:8;stroke-linejoin:round;stroke-miterlimit:10;}
	.st7{fill:#4D9BE6;stroke:#000000;stroke-width:8;stroke-linejoin:round;stroke-miterlimit:10;}
	.st8{fill:#E6904E;stroke:#000000;stroke-width:8;stroke-linejoin:round;stroke-miterlimit:10;}
</style>
<g>
	<g>
		<polygon class="st0" points="171.3,217.1 171.3,298.6 312.5,217.1 312.5,135.6 		"/>
		<polygon class="st1" points="30.2,217.1 30.2,135.6 171.3,217.1 171.3,298.6 		"/>
	</g>
	<g>
		<polygon class="st2" points="171.3,26.6 312.5,108.1 171.3,189.6 30.2,108.1 		"/>
		<polygon class="st3" points="171.3,189.6 171.3,217.1 312.5,135.6 312.5,108.1 		"/>
		<polygon class="st4" points="30.2,135.6 30.2,108.1 171.3,189.6 171.3,217.1 		"/>
	</g>
</g>
<g>
	<g>
		<polygon class="st5" points="474,54.1 615.2,135.6 474,217.1 332.8,135.6 		"/>
		<polygon class="st6" points="474,217.1 474,244.6 615.2,163.1 615.2,135.6 		"/>
		<polygon class="st7" points="332.8,163.1 332.8,135.6 474,217.1 474,244.6 		"/>
	</g>
	<g>
		<polygon class="st1" points="474,298.6 474,244.6 332.8,163.1 332.8,217.1 		"/>
		<polygon class="st0" points="474,298.6 474,244.6 615.2,163.1 615.2,217.1 		"/>
	</g>
</g>
<g>
	<g>
		<g>
			<polygon class="st5" points="171.3,1546.1 312.5,1627.6 171.3,1709.1 30.2,1627.6 			"/>
			<polygon class="st6" points="171.3,1709.1 171.3,1736.6 312.5,1655.1 312.5,1627.6 			"/>
			<polygon class="st7" points="30.2,1655.1 30.2,1627.6 171.3,1709.1 171.3,1736.6 			"/>
		</g>
		<g>
			<polygon class="st1" points="171.3,1790.6 171.3,1736.6 30.2,1655.1 30.2,1709.1 			"/>
			<polygon class="st0" points="171.3,1790.6 171.3,1736.6 312.5,1655.1 312.5,1709.1 			"/>
		</g>
	</g>
	<g>
		<path class="st4" d="M205.8,1538.6l-32.4,8.7l-2.2-1.2l-2.2,1.2l-32.4-8.7l0,27.4l0,0c10.7,6.2,22.6,9.3,34.5,9.3l0,0l0,0
			c0,0,0,0,0,0h0l0,0c11.9,0,23.8-3.1,34.5-9.2l0,0l0,0L205.8,1538.6z"/>
		<path class="st2" d="M205.8,1538.6L205.8,1538.6l-34.5-19.9l-34.5,19.9h0C158.2,1551,184.5,1551,205.8,1538.6z"/>
	</g>
</g>
<g>
	<g>
		<g>
			<polygon class="st5" points="1398.6,1546.1 1539.8,1627.6 1398.6,1709.1 1257.5,1627.6 			"/>
			<polygon class="st6" points="1398.6,1709.1 1398.6,1736.6 1539.8,1655.1 1539.8,1627.6 			"/>
			<polygon class="st7" points="1257.5,1655.1 1257.5,1627.6 1398.6,1709.1 1398.6,1736.6 			"/>
		</g>
		<polygon class="st1" points="1398.6,1790.6 1398.6,1736.6 1257.5,1655.1 1257.5,1709.1 		"/>
	</g>
	<g>
		<path class="st4" d="M1433.2,1538.6l-32.4,8.7l-2.2-1.2l-2.2,1.2l-32.4-8.7l0,27.4l0,0c10.7,6.2,22.6,9.3,34.5,9.3l0,0h0
			c0,0,0,0,0,0h0l0,0c11.9,0,23.8-3.1,34.5-9.2l0,0l0,0L1433.2,1538.6z"/>
		<path class="st2" d="M1433.2,1538.6L1433.2,1538.6l-34.5-19.9l-34.5,19.9l0,0C1385.5,1551,1411.8,1551,1433.2,1538.6z"/>
	</g>
	<g>
		<g>
			<path class="st4" d="M1505.3,1647.5l34.5-19.9l-34.5-19.9l0,0c-1.9,1.1-3.5,2.4-4.9,3.8l-6.6-11.4l0,27.5h0
				C1493.8,1635.4,1497.6,1643.1,1505.3,1647.5L1505.3,1647.5L1505.3,1647.5L1505.3,1647.5L1505.3,1647.5z"/>
			<polygon class="st3" points="1539.8,1600.1 1505.3,1620 1505.3,1647.5 1539.8,1627.6 			"/>
			<path class="st2" d="M1505.3,1620l34.5-19.9l-34.5-19.9l0,0C1489.9,1589,1489.9,1611.2,1505.3,1620L1505.3,1620z"/>
		</g>
		<polygon class="st0" points="1539.8,1655.1 1539.8,1627.6 1505.3,1647.6 1505.3,1675.1 1398.6,1736.6 1398.6,1790.6 
			1539.8,1709.1 1539.8,1655.1 		"/>
	</g>
</g>
<g>
	<g>
		<polygon class="st5" points="783.3,351.1 924.5,432.6 783.3,514.1 642.2,432.6 		"/>
		<polygon class="st6" points="783.3,514.1 783.3,541.6 924.5,460.1 924.5,432.6 		"/>
		<polygon class="st7" points="642.2,460.1 642.2,432.6 783.3,514.1 783.3,541.6 		"/>
	</g>
	<g>
		<polygon class="st4" points="642.2,432.6 642.2,405.1 783.3,486.6 783.3,514.2 		"/>
		<polygon class="st1" points="783.3,541.6 783.3,514.1 642.2,432.6 642.2,460.1 642.2,460.2 642.2,514.1 783.3,595.6 783.3,541.6 
					"/>
		<polygon class="st0" points="783.3,514.2 783.3,541.6 783.3,541.7 783.3,595.6 924.5,514.1 924.5,460.2 924.5,460.1 924.5,432.7 
					"/>
		<polygon class="st4" points="748.8,371.1 748.8,343.6 890,425.1 890,452.6 		"/>
		<polygon class="st2" points="924.5,405.1 783.3,323.6 748.8,343.6 855.5,405.1 783.3,446.8 676.7,385.2 642.2,405.1 748.8,466.7 
			748.8,466.7 783.3,486.7 924.5,405.1 924.5,405.1 		"/>
		<polygon class="st3" points="783.3,486.7 783.3,514.2 924.5,432.7 924.5,405.2 		"/>
	</g>
</g>
<g>
	<g>
		<polygon class="st5" points="1089.3,351.1 1230.5,432.6 1089.3,514.1 948.2,432.6 		"/>
		<polygon class="st6" points="1089.3,514.1 1089.3,541.6 1230.5,460.1 1230.5,432.6 		"/>
		<polygon class="st7" points="948.2,460.1 948.2,432.6 1089.3,514.1 1089.3,541.6 		"/>
	</g>
	<g>
		<polygon class="st3" points="1230.5,432.6 1230.5,405.1 1089.3,486.6 1089.3,514.2 		"/>
		<polygon class="st0" points="1089.3,514.1 1089.3,541.6 1089.3,541.6 1089.3,595.6 1230.5,514.1 1230.5,460.1 1230.5,460.1 
			1230.5,432.6 		"/>
		<polygon class="st1" points="1089.3,541.6 1089.3,514.2 948.2,432.7 948.2,460.2 948.2,460.2 948.2,514.1 1089.3,595.6 
			1089.3,541.6 		"/>
		<polygon class="st3" points="1123.8,371.1 1123.8,343.6 982.7,425.1 982.7,452.6 		"/>
		<polygon class="st2" points="1230.5,405.1 1196,385.2 1089.3,446.8 1017.2,405.1 1123.8,343.6 1089.3,323.6 948.2,405.1 
			948.2,405.1 948.2,405.1 1089.3,486.7 1123.8,466.7 1123.8,466.7 		"/>
		<polygon class="st4" points="1089.3,486.7 1089.3,514.2 948.2,432.7 948.2,405.2 		"/>
	</g>
</g>
<g>
	<g>
		<g>
			<polygon class="st2" points="2322.3,323.6 2463.5,405.1 2322.3,486.6 2181.2,405.1 			"/>
			<path class="st8" d="M2215.7,385.2L2215.7,385.2c66,38.1,147.3,38.1,213.3,0l0,0l-72.1-41.6v0c-21.4,12.3-47.7,12.3-69,0v0
				L2215.7,385.2z"/>
		</g>
		<polygon class="st3" points="2322.3,486.6 2322.3,514.2 2463.5,432.6 2463.5,405.1 		"/>
		<polygon class="st4" points="2181.2,432.6 2181.2,405.1 2322.3,486.6 2322.3,514.2 		"/>
	</g>
	<g>
		<polygon class="st0" points="2322.3,514.2 2322.3,595.7 2463.5,514.2 2463.5,432.6 		"/>
		<polygon class="st1" points="2181.2,514.2 2181.2,432.6 2322.3,514.2 2322.3,595.7 		"/>
	</g>
</g>
<g>
	<g>
		<polygon class="st2" points="1710.3,620.6 1851.5,702.1 1710.3,783.6 1569.2,702.1 		"/>
		<path class="st8" d="M1603.7,722.1L1603.7,722.1c15.3-8.9,15.3-31,0-39.9h0l72.1-41.6h0c21.4,12.3,47.7,12.3,69,0l0,0l72.1,41.6
			l-141.2,81.5L1603.7,722.1z"/>
	</g>
	<g>
		<polygon class="st4" points="1675.8,763.9 1710.3,783.8 1710.3,811.3 1675.8,791.4 		"/>
		<polygon class="st4" points="1603.7,722.3 1603.7,749.8 1569.2,729.8 1569.2,702.3 		"/>
	</g>
	<polygon class="st3" points="1710.3,783.8 1710.3,811.3 1851.5,729.8 1851.5,702.3 	"/>
	<g>
		<polygon class="st0" points="1710.3,811.3 1710.3,892.8 1851.5,811.3 1851.5,729.8 		"/>
		<polygon class="st1" points="1675.8,791.4 1675.8,763.9 1603.7,722.3 1603.7,749.8 1569.2,729.8 1569.2,811.3 1710.3,892.8 
			1710.3,811.3 		"/>
	</g>
</g>
<g>
	<g>
		<polygon class="st2" points="2016.3,620.6 2157.5,702.1 2016.3,783.6 1875.2,702.1 		"/>
		<path class="st8" d="M2050.9,763.7L2050.9,763.7c-21.4-12.3-47.7-12.3-69,0l0,0l-72.1-41.6l0,0c15.3-8.9,15.3-31,0-39.9h0
			l72.1-41.6l141.1,81.5L2050.9,763.7z"/>
	</g>
	<g>
		<polygon class="st4" points="1981.8,763.7 2016.3,783.6 2016.3,811.1 1981.8,791.2 		"/>
		<polygon class="st4" points="1909.7,722.1 1909.7,749.6 1875.2,729.6 1875.2,702.1 		"/>
	</g>
	<g>
		<polygon class="st3" points="2050.9,763.7 2016.3,783.6 2016.3,811.1 2050.9,791.2 		"/>
		<polygon class="st3" points="2123,722.1 2123,749.6 2157.5,729.6 2157.5,702.1 		"/>
	</g>
	<g>
		<polygon class="st0" points="2123,749.6 2123,722.1 2050.9,763.7 2050.9,791.2 2016.3,811.1 2016.3,892.6 2157.5,811.1 
			2157.5,729.6 		"/>
		<polygon class="st1" points="1981.8,791.2 1981.8,763.7 1909.7,722.1 1909.7,749.6 1875.2,729.6 1875.2,811.1 2016.3,892.6 
			2016.3,811.1 		"/>
	</g>
</g>
<g>
	<g>
		<g>
			<polygon class="st2" points="1398.6,917.6 1539.8,999.1 1398.6,1080.6 1257.5,999.1 			"/>
			<polygon class="st8" points="1364.1,937.6 1470.8,999.1 1398.6,1040.8 1292,979.2 			"/>
		</g>
		<polygon class="st4" points="1257.5,1026.6 1257.5,999.1 1398.6,1080.6 1398.6,1108.1 		"/>
		<polygon class="st3" points="1398.6,1080.6 1398.6,1108.1 1539.8,1026.6 1539.8,999.1 		"/>
	</g>
	<g>
		<polygon class="st0" points="1398.6,1108.1 1398.6,1189.6 1539.8,1108.1 1539.8,1026.6 		"/>
		<polygon class="st1" points="1257.5,1108.1 1257.5,1026.6 1398.6,1108.1 1398.6,1189.6 		"/>
	</g>
</g>
<g>
	<g>
		<polygon class="st2" points="1710.3,917.6 1851.5,999.1 1710.3,1080.6 1569.2,999.1 		"/>
		<polygon class="st8" points="1710.3,1040.8 1817,979.2 1744.8,937.6 1638.2,999.1 		"/>
	</g>
	<polygon class="st4" points="1569.2,1026.7 1569.2,999.2 1710.3,1080.7 1710.3,1108.2 	"/>
	<polygon class="st3" points="1710.3,1080.7 1710.3,1108.2 1851.5,1026.7 1851.5,999.2 	"/>
	<polygon class="st0" points="1710.3,1108.2 1710.3,1189.8 1851.5,1108.2 1851.5,1026.7 	"/>
	<polygon class="st1" points="1569.2,1108.2 1569.2,1026.7 1710.3,1108.2 1710.3,1189.8 	"/>
</g>
<g>
	<g>
		<polygon class="st0" points="783.3,217.1 783.3,298.6 924.5,217.1 924.5,135.6 		"/>
		<polygon class="st1" points="642.2,217.1 642.2,135.6 783.3,217.1 783.3,298.6 		"/>
	</g>
	<g>
		<polygon class="st8" points="783.3,54.1 924.5,135.6 783.3,217.1 642.2,135.6 		"/>
	</g>
</g>
<g>
	<g>
		<g>
			<polygon class="st5" points="474,351.1 615.2,432.6 474,514.1 332.8,432.6 			"/>
			<polygon class="st6" points="474,514.1 474,541.6 615.2,460.1 615.2,432.6 			"/>
			<polygon class="st7" points="332.8,460.1 332.8,432.6 474,514.1 474,541.6 			"/>
		</g>
		<g>
			<polygon class="st3" points="508.5,466.7 474,486.6 474,514.1 508.5,494.2 			"/>
			<polygon class="st3" points="508.5,371.1 508.5,343.6 367.4,425.1 367.4,452.6 			"/>
			<polygon class="st3" points="615.2,405.2 580.7,425.1 580.7,452.6 615.2,432.7 			"/>
			<polygon class="st2" points="580.7,425.1 615.2,405.1 474,323.6 474,323.6 474,323.6 367.4,385.2 367.4,385.2 332.8,405.1 
				359.5,420.5 367.4,425.1 367.4,425.1 474,486.6 508.5,466.7 401.9,405.1 474,363.5 			"/>
			<polygon class="st4" points="474,486.7 474,514.2 332.9,432.7 332.9,405.2 			"/>
			<polygon class="st4" points="474.1,391.2 474.2,363.7 580.5,425.1 580.5,452.6 			"/>
		</g>
	</g>
	<polygon class="st1" points="332.8,432.6 474,514.1 474,541.6 474,541.6 474,595.6 332.9,514.1 332.9,460.1 332.8,460.1 	"/>
	<polygon class="st0" points="615.2,460.1 615.2,432.6 580.6,452.6 580.6,480.1 508.5,521.7 508.5,494.2 474,514.1 474,541.6 
		474,595.6 615.2,514.1 615.2,460.1 	"/>
</g>
<g>
	<g>
		<g>
			<polygon class="st5" points="171.3,351.1 312.5,432.6 171.3,514.1 30.2,432.6 			"/>
			<polygon class="st6" points="171.3,514.1 171.3,541.6 312.5,460.1 312.5,432.6 			"/>
			<polygon class="st7" points="30.2,460.1 30.2,432.6 171.3,514.1 171.3,541.6 			"/>
		</g>
		<g>
			<polygon class="st4" points="136.8,466.7 171.3,486.6 171.3,514.1 136.8,494.2 			"/>
			<polygon class="st0" points="312.5,432.6 171.3,514.1 171.3,541.6 171.3,541.6 171.3,595.6 312.5,514.1 312.5,460.1 312.5,460.1 
							"/>
			<polygon class="st4" points="136.8,371.1 136.8,343.6 278,425.1 278,452.6 			"/>
			<polygon class="st4" points="30.2,405.2 64.7,425.1 64.7,452.6 30.2,432.7 			"/>
			<polygon class="st2" points="285.8,420.5 312.5,405.1 278,385.2 278,385.2 171.3,323.6 171.3,323.6 171.3,323.6 30.2,405.1 
				64.7,425.1 171.3,363.5 243.5,405.1 136.8,466.7 171.3,486.6 278,425.1 278,425.1 			"/>
			<polygon class="st3" points="171.3,486.7 171.3,514.2 312.5,432.7 312.5,405.2 			"/>
			<polygon class="st3" points="171.2,391.2 171.1,363.7 64.8,425.1 64.8,452.6 			"/>
		</g>
	</g>
	<polygon class="st1" points="30.2,460.1 30.2,432.6 64.7,452.5 64.7,480 136.8,521.7 136.8,494.2 171.3,514.1 171.3,541.6 
		171.3,595.6 30.2,514.1 30.2,460.1 	"/>
</g>
<g>
	<g>
		<g>
			<polygon class="st5" points="1710.3,1546.1 1851.5,1627.6 1710.3,1709.1 1569.2,1627.6 			"/>
			<polygon class="st6" points="1710.3,1709.1 1710.3,1736.6 1851.5,1655.1 1851.5,1627.6 			"/>
			<polygon class="st7" points="1569.2,1655.1 1569.2,1627.6 1710.3,1709.1 1710.3,1736.6 			"/>
		</g>
		<g>
			<g>
				<path class="st2" d="M1710.2,1681.7l34.5-19.9v0c-21.4-12.3-47.7-12.3-69,0v0L1710.2,1681.7z"/>
				<polygon class="st3" points="1744.7,1661.8 1710.2,1681.7 1710.2,1709.2 1744.7,1689.3 				"/>
				<polygon class="st4" points="1675.7,1661.8 1710.2,1681.7 1710.2,1709.2 1675.7,1689.3 				"/>
			</g>
			<polygon class="st1" points="1710.2,1736.5 1710.2,1709.1 1675.7,1689.2 1675.7,1716.6 1569.2,1655.1 1569.2,1709.1 
				1710.3,1790.6 1710.3,1736.6 			"/>
		</g>
		<g>
			<g>
				<path class="st4" d="M1817,1647.3l34.5-19.9l-34.5-19.9l0,0c-1.9,1.1-3.5,2.4-4.9,3.8l-6.6-11.4v27.5l0,0
					C1805.5,1635.2,1809.3,1642.9,1817,1647.3L1817,1647.3L1817,1647.3L1817,1647.3L1817,1647.3z"/>
				<polygon class="st3" points="1851.5,1599.9 1817,1619.8 1817,1647.3 1851.5,1627.4 				"/>
				<path class="st2" d="M1817,1619.8l34.5-19.9L1817,1580l0,0C1801.6,1588.8,1801.6,1611,1817,1619.8L1817,1619.8z"/>
			</g>
		</g>
	</g>
	<polygon class="st0" points="1851.5,1655.1 1851.5,1627.6 1817,1647.6 1817,1675.1 1744.9,1716.7 1744.9,1689.2 1710.3,1709.1 
		1710.3,1736.6 1710.3,1790.6 1851.5,1709.1 1851.5,1655.1 	"/>
</g>
<g>
	<g>
		<g>
			<g>
				<polygon class="st5" points="2016.3,1546.1 2157.5,1627.6 2016.3,1709.1 1875.2,1627.6 				"/>
				<polygon class="st6" points="2016.3,1709.1 2016.3,1736.6 2157.5,1655.1 2157.5,1627.6 				"/>
				<polygon class="st7" points="1875.2,1655.1 1875.2,1627.6 2016.3,1709.1 2016.3,1736.6 				"/>
			</g>
		</g>
		<g>
			<g>
				<path class="st2" d="M2016.3,1681.6l34.5-19.9l0,0c-21.4-12.3-47.7-12.3-69,0l0,0L2016.3,1681.6z"/>
				<polygon class="st3" points="2050.9,1661.7 2016.3,1681.6 2016.3,1709.1 2050.9,1689.2 				"/>
				<polygon class="st4" points="1981.8,1661.7 2016.3,1681.6 2016.3,1709.1 1981.8,1689.2 				"/>
			</g>
		</g>
		<g>
			<g>
				<path class="st3" d="M1921.2,1627.5V1600l-6.6,11.4c-1.4-1.4-3.1-2.7-4.9-3.8l0,0l-34.5,19.9l34.5,19.9v0l0,0l0,0l0,0
					C1917.4,1643,1921.2,1635.3,1921.2,1627.5L1921.2,1627.5z"/>
				<polygon class="st4" points="1875.2,1600 1909.7,1620 1909.7,1647.5 1875.2,1627.5 				"/>
				<path class="st2" d="M1909.7,1620l-34.5-19.9l34.5-19.9l0,0C1925,1589,1925,1611.1,1909.7,1620L1909.7,1620z"/>
			</g>
		</g>
	</g>
	<polygon class="st1" points="1875.2,1655.1 1875.2,1627.6 1909.7,1647.6 1909.7,1675.1 1981.8,1716.7 1981.8,1689.2 2016.3,1709.1 
		2016.3,1736.6 2016.3,1790.6 1875.2,1709.1 1875.2,1655.1 	"/>
	<polygon class="st0" points="2016.5,1736.5 2016.5,1709.1 2051,1689.2 2051,1716.6 2157.5,1655.1 2157.5,1709.1 2016.3,1790.6 
		2016.3,1736.6 	"/>
</g>
<g>
	<g>
		<g>
			<g>
				<polygon class="st5" points="2322.3,1546.1 2463.5,1627.6 2322.3,1709.1 2181.2,1627.6 				"/>
				<polygon class="st6" points="2322.3,1709.1 2322.3,1736.6 2463.5,1655.1 2463.5,1627.6 				"/>
				<polygon class="st7" points="2181.2,1655.1 2181.2,1627.6 2322.3,1709.1 2322.3,1736.6 				"/>
			</g>
			<polygon class="st0" points="2322.3,1790.6 2322.3,1736.6 2463.5,1655.1 2463.5,1709.1 			"/>
		</g>
		<g>
			<path class="st4" d="M2356.9,1538.7l-32.4,8.7l-2.2-1.2l-2.2,1.2l-32.4-8.7l0,27.4l0,0l0,0c10.7,6.2,22.6,9.3,34.5,9.3v0v0
				c0,0,0,0,0,0l0,0v0c11.9,0,23.8-3.1,34.5-9.2l0,0l0,0L2356.9,1538.7z"/>
			<path class="st2" d="M2356.8,1538.7L2356.8,1538.7l-34.5-19.9l-34.5,19.9l0,0C2309.2,1551,2335.5,1551,2356.8,1538.7z"/>
		</g>
		<g>
			<path class="st3" d="M2227.2,1627.6v-27.5l-6.6,11.4c-1.4-1.4-3.1-2.7-4.9-3.8l0,0l-34.5,19.9l34.5,19.9v0l0,0l0,0v0
				C2223.4,1643.1,2227.2,1635.4,2227.2,1627.6L2227.2,1627.6z"/>
			<polygon class="st4" points="2181.2,1600.1 2215.7,1620 2215.7,1647.5 2181.2,1627.6 			"/>
			<path class="st2" d="M2215.7,1620l-34.5-19.9l34.5-19.9l0,0C2231,1589,2231,1611.2,2215.7,1620L2215.7,1620z"/>
		</g>
	</g>
	<polygon class="st1" points="2181.2,1655.1 2181.2,1627.6 2215.7,1647.5 2215.7,1675 2322.3,1736.6 2322.3,1790.6 2181.2,1709.1 
		2181.2,1655.1 	"/>
</g>
<g>
	<g>
		<g>
			<g>
				<polygon class="st5" points="171.3,945 312.5,1026.5 171.3,1108 30.2,1026.5 				"/>
				<polygon class="st6" points="171.3,1108 171.3,1135.5 312.5,1054 312.5,1026.5 				"/>
				<polygon class="st7" points="30.2,1054 30.2,1026.5 171.3,1108 171.3,1135.5 				"/>
			</g>
			<g>
				<g>
					<polygon class="st1" points="30.2,1026.5 30.2,1054 30.2,1108 171.3,1189.5 171.3,1135.5 171.3,1108 					"/>
				</g>
				<polygon class="st4" points="30.2,1026.5 30.2,999 171.3,1080.5 171.3,1108 				"/>
				<path class="st2" d="M278,979L278,979c-65.9,38.1-147.2,38.1-213.1,0l-0.1-0.1l-34.5,19.9l106.7,61.6l-0.1,0l34.5,19.9
					L312.5,999L278,979z"/>
				<polygon class="st3" points="171.3,1080.5 171.3,1108 312.5,1026.5 312.5,999 				"/>
			</g>
		</g>
		<g>
			<path class="st4" d="M205.9,937.6l-32.4,8.7l-2.2-1.2l-2.2,1.2l-32.4-8.7l0,27.4l0,0c10.7,6.2,22.6,9.3,34.5,9.3l0,0h0
				c0,0,0,0,0,0l0,0v0c11.9,0,23.8-3.1,34.5-9.2l0,0l0,0L205.9,937.6z"/>
			<path class="st2" d="M205.8,937.6L205.8,937.6l-34.5-19.9l-34.5,19.9h0C158.2,949.9,184.5,949.9,205.8,937.6z"/>
		</g>
	</g>
	<polygon class="st0" points="312.5,1026.5 312.5,1054 312.5,1108 171.3,1189.5 171.3,1135.5 171.3,1108 	"/>
</g>
<g>
	<g>
		<g>
			<g>
				<polygon class="st5" points="474,945.1 615.2,1026.6 474,1108.1 332.8,1026.6 				"/>
				<polygon class="st6" points="474,1108.1 474,1135.6 615.2,1054.1 615.2,1026.6 				"/>
				<polygon class="st7" points="332.8,1054.1 332.8,1026.6 474,1108.1 474,1135.6 				"/>
			</g>
			<path class="st4" d="M615.2,1026.6L508.5,965l0,0L474,945.1l-141.2,81.5l34.5,19.9h0c66-38.1,147.3-38.1,213.3,0l0,0
				L615.2,1026.6z"/>
			<path class="st2" d="M615.2,999.1l-106.7-61.6l0,0L474,917.6l-141.2,81.5l34.5,19.9l0,0c66-38.1,147.3-38.1,213.3,0l0,0
				L615.2,999.1z"/>
			<polygon class="st3" points="615.2,999.2 580.6,1019.2 580.6,1046.7 615.2,1026.7 			"/>
			<polygon class="st4" points="332.8,999.1 367.4,1019.1 367.4,1046.6 332.8,1026.6 			"/>
		</g>
		<g>
			<g>
				<path class="st2" d="M474,1080.7l34.5-19.9h0c-21.4-12.3-47.7-12.3-69,0h0L474,1080.7z"/>
				<polygon class="st3" points="508.5,1060.7 474,1080.7 474,1108.2 508.5,1088.2 				"/>
				<polygon class="st4" points="439.5,1060.7 474,1080.7 474,1108.2 439.5,1088.2 				"/>
			</g>
		</g>
	</g>
	<polygon class="st0" points="615.1,1054.1 615.1,1026.6 580.6,1046.5 580.6,1074 508.5,1115.7 508.5,1088.2 474,1108.1 474,1135.6 
		474,1189.6 615.2,1108.1 615.2,1054.1 	"/>
	<polygon class="st1" points="332.9,1054.2 332.9,1026.7 367.4,1046.6 367.4,1074.1 439.5,1115.7 439.5,1088.2 474,1108.2 
		474,1135.7 474,1189.7 332.8,1108.2 332.8,1054.2 	"/>
</g>
<g>
	<g>
		<g>
			<g>
				<polygon class="st5" points="1089.3,945.2 948.2,1026.7 1089.3,1108.2 1230.5,1026.7 				"/>
				<polygon class="st6" points="1089.3,1108.2 1089.3,1135.7 948.2,1054.2 948.2,1026.7 				"/>
				<polygon class="st6" points="1230.5,1054.2 1230.5,1026.7 1089.3,1108.2 1089.3,1135.7 				"/>
			</g>
			<g>
				<path class="st3" d="M1100.1,951.4l-10.8-6.2l-141.1,81.5l0.1,0l-0.1,0l141.2,81.5l34.5-19.9l0,0c0,0,0,0,0,0l0,0v-27.5
					l-19.4,11.2c-26.2-31.6-20.5-81.9,17-105.5l2.4-1.4v-0.1v0v-27.4L1100.1,951.4z"/>
				<path class="st2" d="M948.2,999.1l141.1-81.5l34.5,19.9v0c-47.4,27.4-47.4,95.9,0,123.3l0,0l-34.5,19.9L948.2,999.1L948.2,999.1
					L948.2,999.1z"/>
				<polygon class="st4" points="1089.3,1080.7 1089.3,1108.2 948.2,1026.7 948.2,999.2 				"/>
			</g>
		</g>
		<g>
			<g>
				<path class="st4" d="M1196,1046.6l34.5-19.9l-34.5-19.9l0,0c-1.9,1.1-3.5,2.4-4.9,3.8l-6.6-11.4v27.5v0
					C1184.5,1034.4,1188.3,1042.2,1196,1046.6L1196,1046.6L1196,1046.6L1196,1046.6z"/>
				<polygon class="st3" points="1230.5,999.2 1196,1019.1 1196,1046.6 1230.5,1026.7 				"/>
				<path class="st2" d="M1196,1019.1l34.5-19.9l-34.5-19.9l0,0C1180.6,988.1,1180.6,1010.3,1196,1019.1L1196,1019.1z"/>
			</g>
		</g>
	</g>
	<polygon class="st0" points="1230.5,1054.3 1230.5,1026.8 1196,1046.7 1196,1074.2 1123.8,1115.8 1123.8,1088.3 1089.3,1108.3 
		1089.3,1135.8 1089.3,1189.8 1230.5,1108.3 1230.5,1054.3 	"/>
	<g>
		<polygon class="st1" points="948.2,1026.8 948.2,1054.3 948.2,1108.3 1089.3,1189.8 1089.3,1135.8 1089.3,1108.3 		"/>
	</g>
</g>
<g>
	<g>
		<g>
			<g>
				<polygon class="st5" points="783.3,945.2 924.5,1026.7 783.3,1108.2 642.2,1026.7 				"/>
				<polygon class="st6" points="783.3,1108.2 783.3,1135.7 924.5,1054.2 924.5,1026.7 				"/>
				<polygon class="st7" points="642.2,1054.2 642.2,1026.7 783.3,1108.2 783.3,1135.7 				"/>
			</g>
			<g>
				<path class="st4" d="M924.5,1026.7l-141.1-81.5l-10.8,6.2l-23.8-13.7v27.4v0.1l2.4,1.4c37.5,23.6,43.2,73.8,17,105.5l-19.4-11.2
					v27.5l0,0c0,0,0,0,0,0l0,0l34.5,19.9L924.5,1026.7L924.5,1026.7L924.5,1026.7z"/>
				<path class="st2" d="M924.5,999.1l-141.1-81.5l-34.5,19.9l0,0c47.4,27.4,47.4,95.9,0,123.3l0,0l34.5,19.9L924.5,999.1
					L924.5,999.1L924.5,999.1z"/>
				<polygon class="st3" points="783.3,1080.7 783.3,1108.2 924.5,1026.7 924.5,999.2 				"/>
			</g>
		</g>
		<g>
			<g>
				<path class="st3" d="M688.2,1026.8v-27.5l-6.6,11.4c-1.4-1.4-3.1-2.7-4.9-3.8l0,0l-34.5,19.9l34.5,19.9v0l0,0l0,0v0
					C684.4,1042.3,688.2,1034.6,688.2,1026.8L688.2,1026.8z"/>
				<polygon class="st4" points="642.2,999.3 676.7,1019.3 676.7,1046.8 642.2,1026.8 				"/>
				<path class="st2" d="M676.7,1019.3l-34.5-19.9l34.5-19.9l0,0C692,988.3,692,1010.4,676.7,1019.3L676.7,1019.3z"/>
			</g>
			<polygon class="st1" points="783.3,1135.7 783.3,1108.2 748.8,1088.3 748.8,1115.8 676.7,1074.2 676.7,1046.7 642.2,1026.8 
				642.2,1054.2 642.2,1054.2 642.2,1108.2 783.3,1189.7 783.3,1135.7 			"/>
		</g>
	</g>
	<polygon class="st0" points="924.5,1026.7 924.5,1054.2 924.5,1108.2 783.3,1189.7 783.3,1135.7 783.3,1108.2 	"/>
</g>
<g>
	<g>
		<g>
			<polygon class="st5" points="1089.3,54.1 1230.5,135.6 1089.3,217.1 948.2,135.6 			"/>
			<polygon class="st6" points="1089.3,217.1 1089.3,244.6 1230.5,163.1 1230.5,135.6 			"/>
			<polygon class="st7" points="948.2,163.1 948.2,135.6 1089.3,217.1 1089.3,244.6 			"/>
		</g>
		<g>
			<path class="st4" d="M1123.8,46.8l-32.4,8.7l-2.2-1.2l-2.2,1.2l-32.4-8.7l0,27.4l0,0c10.7,6.2,22.6,9.3,34.5,9.3v0v0c0,0,0,0,0,0
				l0,0v0c11.9,0,23.8-3.1,34.5-9.2l0,0l0,0L1123.8,46.8z"/>
			<path class="st2" d="M1123.8,46.9L1123.8,46.9l-34.5-19.9l-34.5,19.9v0C1076.2,59.2,1102.5,59.2,1123.8,46.9z"/>
		</g>
		<g>
			<path class="st3" d="M994.2,135.6v-27.5l-6.6,11.4c-1.4-1.4-3.1-2.7-4.9-3.8l0,0l-34.5,19.9l34.5,19.9v0l0,0l0,0l0,0
				C990.4,151.1,994.2,143.4,994.2,135.6L994.2,135.6z"/>
			<polygon class="st4" points="948.2,108.1 982.7,128.1 982.7,155.6 948.2,135.6 			"/>
			<path class="st2" d="M982.7,128.1l-34.5-19.9l34.5-19.9l0,0C998,97.1,998,119.2,982.7,128.1L982.7,128.1z"/>
		</g>
		<g>
			<path class="st4" d="M1196,155.6l34.5-19.9l-34.5-19.9l0,0c-1.9,1.1-3.5,2.4-4.9,3.8l-6.6-11.4v27.5l0,0
				C1184.5,143.4,1188.3,151.1,1196,155.6L1196,155.6L1196,155.6L1196,155.6L1196,155.6z"/>
			<polygon class="st3" points="1230.5,108.1 1196,128.1 1196,155.6 1230.5,135.6 			"/>
			<path class="st2" d="M1196,128.1l34.5-19.9L1196,88.2l0,0C1180.6,97.1,1180.6,119.2,1196,128.1L1196,128.1z"/>
		</g>
		<g>
			<g>
				<path class="st2" d="M1089.3,189.7l34.5-19.9v0c-21.4-12.3-47.7-12.3-69,0l0,0L1089.3,189.7z"/>
				<polygon class="st3" points="1123.8,169.8 1089.3,189.7 1089.3,217.2 1123.8,197.3 				"/>
				<polygon class="st4" points="1054.8,169.8 1089.3,189.7 1089.3,217.2 1054.8,197.3 				"/>
			</g>
			<polygon class="st0" points="1230.5,163.1 1230.5,135.6 1196,155.6 1196,183.1 1123.8,224.7 1123.8,197.2 1089.3,217.1 
				1089.3,244.6 1089.3,298.6 1230.5,217.1 1230.5,163.1 			"/>
		</g>
	</g>
	<polygon class="st1" points="948.2,163.1 948.2,135.6 982.7,155.6 982.7,183.1 1054.8,224.7 1054.8,197.2 1089.3,217.1 
		1089.3,244.6 1089.3,298.6 948.2,217.1 948.2,163.1 	"/>
</g>
<g>
	<g>
		<g>
			<g>
				<polygon class="st5" points="1398.6,1242.2 1539.8,1323.7 1398.6,1405.2 1257.5,1323.7 				"/>
				<polygon class="st6" points="1398.6,1405.2 1398.6,1432.7 1539.8,1351.2 1539.8,1323.7 				"/>
				<polygon class="st7" points="1257.5,1351.2 1257.5,1323.7 1398.6,1405.2 1398.6,1432.7 				"/>
			</g>
		</g>
		<g>
			<polygon class="st4" points="1257.5,1323.7 1257.5,1296.2 1398.6,1377.7 1398.6,1405.2 			"/>
			<path class="st2" d="M1505.3,1276.3L1505.3,1276.3c-65.9,38.1-147.2,38.1-213.1,0l-0.1-0.1l-34.5,19.9l106.7,61.6l-0.1,0
				l34.5,19.9l141.2-81.5L1505.3,1276.3z"/>
			<polygon class="st3" points="1398.6,1377.7 1398.6,1405.2 1539.8,1323.7 1539.8,1296.2 			"/>
		</g>
	</g>
	<polygon class="st0" points="1539.8,1323.7 1539.8,1351.2 1539.8,1405.2 1398.6,1486.7 1398.6,1432.7 1398.6,1405.2 	"/>
	<g>
		<polygon class="st1" points="1257.5,1323.7 1257.5,1351.2 1257.5,1405.2 1398.6,1486.7 1398.6,1432.7 1398.6,1405.2 		"/>
	</g>
</g>
<g>
	<g>
		<g>
			<g>
				<polygon class="st5" points="1710.3,1242.2 1851.5,1323.7 1710.3,1405.2 1569.2,1323.7 				"/>
				<polygon class="st6" points="1710.3,1405.2 1710.3,1432.7 1851.5,1351.2 1851.5,1323.7 				"/>
				<polygon class="st7" points="1569.2,1351.2 1569.2,1323.7 1710.3,1405.2 1710.3,1432.7 				"/>
			</g>
		</g>
		<path class="st4" d="M1851.5,1323.7l-106.7-61.6l0,0l-34.5-19.9l-141.2,81.5l34.5,19.9h0c66-38.1,147.3-38.1,213.3,0l0,0
			L1851.5,1323.7z"/>
		<path class="st2" d="M1851.5,1296.3l-106.7-61.6l0,0l-34.5-19.9l-141.2,81.5l34.5,19.9l0,0c66-38.1,147.3-38.1,213.3,0l0,0
			L1851.5,1296.3z"/>
		<polygon class="st3" points="1851.5,1296.3 1817,1316.3 1817,1343.8 1851.5,1323.8 		"/>
		<polygon class="st4" points="1569.2,1296.2 1603.7,1316.2 1603.7,1343.7 1569.2,1323.7 		"/>
	</g>
	<polygon class="st1" points="1569.2,1351.2 1569.2,1323.7 1603.7,1343.7 1603.7,1371.2 1710.3,1432.7 1710.3,1486.7 1569.2,1405.2 
		1569.2,1351.2 	"/>
	<polygon class="st0" points="1851.5,1351.2 1851.5,1323.7 1817,1343.7 1817,1371.2 1710.3,1432.7 1710.3,1486.7 1851.5,1405.2 
		1851.5,1351.2 	"/>
</g>
<g>
	<g>
		<g>
			<g>
				<polygon class="st5" points="2322.3,1242.2 2181.2,1323.7 2322.3,1405.2 2463.5,1323.7 				"/>
				<polygon class="st6" points="2322.3,1405.2 2322.3,1432.7 2181.2,1351.2 2181.2,1323.7 				"/>
				<polygon class="st6" points="2463.5,1351.2 2463.5,1323.7 2322.3,1405.2 2322.3,1432.7 				"/>
			</g>
		</g>
		<g>
			<path class="st3" d="M2356.9,1357.8l-19.4,11.2c-26.2-31.6-20.5-81.9,17-105.5l2.4-1.4v-0.1h0l0,0v-27.4l-23.8,13.7l-10.8-6.2
				l-141.1,81.5l0.1,0l-0.1,0l141.2,81.5l34.5-19.9l0,0c0,0,0,0,0,0l0,0V1357.8z"/>
			<path class="st2" d="M2181.2,1296.1l141.1-81.5l34.5,19.9v0c-47.4,27.4-47.4,95.9,0,123.3l0,0l-34.5,19.9L2181.2,1296.1
				L2181.2,1296.1L2181.2,1296.1z"/>
			<polygon class="st4" points="2322.3,1377.7 2322.3,1405.2 2181.2,1323.7 2181.2,1296.2 			"/>
		</g>
	</g>
	<g>
		<polygon class="st1" points="2181.2,1323.7 2181.2,1351.2 2181.2,1405.2 2322.3,1486.7 2322.3,1432.7 2322.3,1405.2 		"/>
	</g>
	<polygon class="st0" points="2356.9,1412.2 2356.9,1384.7 2322.3,1404.7 2322.3,1432.2 2322.3,1486.2 2463.5,1404.6 2463.5,1350.6 
			"/>
</g>
<g>
	<g>
		<g>
			<g>
				<polygon class="st5" points="2016.3,1242.2 2157.5,1323.7 2016.3,1405.2 1875.2,1323.7 				"/>
				<polygon class="st6" points="2016.3,1405.2 2016.3,1432.7 2157.5,1351.2 2157.5,1323.7 				"/>
				<polygon class="st7" points="1875.2,1351.2 1875.2,1323.7 2016.3,1405.2 2016.3,1432.7 				"/>
			</g>
		</g>
		<g>
			<path class="st4" d="M2157.5,1323.6l-141.1-81.5l-10.8,6.2l-23.8-13.7v27.4l0,0l0,0v0.1l1.7,1c38.2,23.4,44.1,74.1,17.7,105.9
				l-19.4-11.2v27.5l0,0c0,0,0,0,0,0l0,0l34.5,19.9L2157.5,1323.6L2157.5,1323.6L2157.5,1323.6z"/>
			<path class="st2" d="M2157.5,1296.1l-141.1-81.5l-34.5,19.9h0c47.4,27.4,47.4,95.9,0,123.3l0,0l34.5,19.9L2157.5,1296.1
				L2157.5,1296.1L2157.5,1296.1z"/>
			<polygon class="st3" points="2016.3,1377.7 2016.3,1405.2 2157.5,1323.7 2157.5,1296.2 			"/>
		</g>
	</g>
	<polygon class="st0" points="2157.5,1323.7 2157.5,1351.2 2157.5,1405.2 2016.3,1486.7 2016.3,1432.7 2016.3,1405.2 	"/>
	<polygon class="st1" points="1981.8,1412.8 1981.8,1385.3 2016.3,1405.2 2016.3,1432.7 2016.3,1486.7 1875.2,1405.2 1875.2,1351.2 
			"/>
</g>
<g>
	<g>
		<polygon class="st5" points="783.3,648 924.5,729.5 783.3,811 642.2,729.5 		"/>
		<polygon class="st6" points="783.3,811 783.3,838.5 924.5,757 924.5,729.5 		"/>
		<polygon class="st0" points="748.8,763.6 748.8,791.1 890,709.6 890,682.1 		"/>
		<g>
			<polygon class="st4" points="783.3,677.2 817.8,667.9 817.9,640.6 783.3,649.8 			"/>
			<polygon class="st4" points="783.3,648 781.2,649.2 748.8,640.6 748.8,667.9 748.8,667.9 783.3,687.8 817.9,667.9 			"/>
			<polygon class="st2" points="783.3,660.5 817.9,640.6 783.3,620.6 748.8,640.6 			"/>
		</g>
		<g>
			<g>
				<polygon class="st2" points="783.3,783.6 817.8,763.6 783.3,743.7 748.8,763.6 				"/>
				<polygon class="st3" points="817.8,763.6 783.3,783.6 783.3,811.1 817.8,791.1 				"/>
				<polygon class="st4" points="748.8,763.6 783.3,783.6 783.3,811.1 748.8,791.1 				"/>
			</g>
		</g>
		<g>
			<g>
				<polygon class="st3" points="676.7,749.4 642.2,729.5 676.7,709.6 711.2,729.5 				"/>
				<polyline class="st3" points="676.7,721.9 676.7,749.4 688.2,729.5 688.2,702 				"/>
			</g>
			<polygon class="st4" points="642.2,702 676.7,721.9 676.7,749.4 642.2,729.5 			"/>
			<polygon class="st2" points="676.7,721.9 642.2,702 676.7,682.1 711.2,702 			"/>
		</g>
		<polygon class="st3" points="924.5,702 890,721.9 890,749.4 924.5,729.5 		"/>
		<polygon class="st2" points="890,721.9 924.5,702 890,682.1 855.4,702 		"/>
		<polygon class="st4" points="855.4,701.9 890,721.9 890,749.4 855.4,729.4 		"/>
		<polygon class="st1" points="748.8,791.1 748.8,763.6 676.7,721.9 676.7,749.4 676.7,749.4 676.7,749.4 642.2,729.5 642.2,729.5 
			642.2,729.5 642.2,757 642.2,811 783.3,892.5 783.3,838.5 783.3,811 		"/>
		<polygon class="st8" points="890,682.1 748.8,763.6 676.7,721.9 817.8,640.4 887.3,680.5 		"/>
	</g>
	<polygon class="st0" points="924.5,757.1 924.5,729.6 890,749.5 890,777 817.8,818.6 817.8,791.1 783.3,811.1 783.3,838.6 
		783.3,892.6 924.5,811.1 924.5,757.1 	"/>
</g>
<g>
	<g>
		<polygon class="st5" points="1089.3,648 948.2,729.5 1089.3,811 1230.5,729.5 		"/>
		<polygon class="st7" points="1089.3,811 1089.3,838.5 948.2,757 948.2,729.5 		"/>
		<polygon class="st1" points="1123.8,763.6 1123.8,791.1 982.7,709.6 982.7,682.1 		"/>
		<g>
			<polygon class="st4" points="1089.3,677.2 1054.8,667.9 1054.8,640.6 1089.3,649.8 			"/>
			<polygon class="st3" points="1123.8,667.9 1123.8,640.6 1091.5,649.2 1089.3,648 1054.8,667.9 1089.3,687.8 1123.8,667.9 			"/>
			<polygon class="st2" points="1089.3,660.5 1054.8,640.6 1089.3,620.6 1123.8,640.6 			"/>
		</g>
		<g>
			<g>
				<polygon class="st2" points="1089.3,783.6 1054.8,763.6 1089.3,743.7 1123.8,763.6 				"/>
				<polygon class="st4" points="1054.8,763.6 1089.3,783.6 1089.3,811.1 1054.8,791.1 				"/>
				<polygon class="st3" points="1123.8,763.6 1089.3,783.6 1089.3,811.1 1123.8,791.1 				"/>
			</g>
		</g>
		<g>
			<g>
				<polygon class="st3" points="1195.9,749.4 1230.5,729.5 1195.9,709.6 1161.4,729.5 				"/>
				<polyline class="st3" points="1196,721.9 1195.9,749.4 1184.4,729.5 1184.4,702 				"/>
			</g>
			<polygon class="st3" points="1230.5,702 1196,721.9 1195.9,749.4 1230.5,729.5 			"/>
			<polygon class="st2" points="1195.9,721.9 1230.5,702 1195.9,682.1 1161.4,702 			"/>
		</g>
		<polygon class="st4" points="948.2,702 982.7,721.9 982.7,749.4 948.2,729.5 		"/>
		<polygon class="st2" points="982.7,721.9 948.2,702 982.7,682.1 1017.2,702 		"/>
		<polygon class="st3" points="1017.2,701.9 982.7,721.9 982.7,749.4 1017.2,729.4 		"/>
		<polygon class="st0" points="1230.5,729.5 1230.5,729.5 1196,749.4 1196,749.4 1195.9,749.4 1195.9,721.9 1123.8,763.6 
			1123.8,791.1 1089.3,811 1089.3,838.5 1089.3,892.5 1230.5,811 1230.5,757 1230.5,729.5 		"/>
		<polygon class="st8" points="982.7,682.1 1123.8,763.6 1195.9,721.9 1054.8,640.4 985.4,680.5 		"/>
	</g>
	<polygon class="st1" points="1089.3,838.5 1089.3,811 1054.8,791.1 1054.8,818.6 982.7,776.9 982.7,749.5 948.2,729.6 948.2,757 
		948.2,757 948.2,811 1089.3,892.5 1089.3,838.5 	"/>
</g>
<g>
	<g>
		<g>
			<g>
				<polygon class="st5" points="783.3,1242.2 924.5,1323.7 783.3,1405.2 642.2,1323.7 				"/>
				<polygon class="st6" points="783.3,1405.2 783.3,1432.7 924.5,1351.2 924.5,1323.7 				"/>
				<polygon class="st7" points="642.2,1351.2 642.2,1323.7 783.3,1405.2 783.3,1432.7 				"/>
			</g>
			<g>
				<polygon class="st1" points="783.3,1486.7 783.3,1432.7 642.2,1351.2 642.2,1405.2 				"/>
			</g>
		</g>
		<g>
			<g>
				<polygon class="st2" points="783.3,1214.6 924.5,1296.1 890,1316.1 748.8,1234.6 				"/>
				<polygon class="st4" points="748.8,1262.1 748.8,1234.6 890,1316.1 890,1343.6 				"/>
				<polygon class="st3" points="924.5,1296.2 890,1316.1 890,1343.6 924.5,1323.7 				"/>
			</g>
		</g>
	</g>
	<polygon class="st0" points="924.5,1351.2 924.5,1323.7 890,1343.7 890,1371.2 783.3,1432.7 783.3,1486.7 924.5,1405.2 
		924.5,1351.2 	"/>
</g>
<g>
	<g>
		<g>
			<g>
				<polygon class="st5" points="474,1242.2 615.2,1323.7 474,1405.2 332.8,1323.7 				"/>
				<polygon class="st6" points="474,1405.2 474,1432.7 615.2,1351.2 615.2,1323.7 				"/>
				<polygon class="st7" points="332.8,1351.2 332.8,1323.7 474,1405.2 474,1432.7 				"/>
			</g>
			<g>
				<polygon class="st0" points="474,1486.7 474,1432.7 615.2,1351.2 615.2,1405.2 				"/>
			</g>
		</g>
		<g>
			<g>
				<polygon class="st2" points="474,1214.7 332.8,1296.2 367.4,1316.2 508.5,1234.7 				"/>
				<polygon class="st3" points="367.4,1316.2 367.4,1343.7 508.5,1262.2 508.5,1234.7 				"/>
				<polygon class="st4" points="332.8,1296.2 367.4,1316.2 367.4,1343.7 332.8,1323.7 				"/>
			</g>
		</g>
	</g>
	<polygon class="st1" points="332.8,1351.2 332.8,1323.7 367.4,1343.7 367.4,1371.2 474,1432.7 474,1486.7 332.8,1405.2 
		332.8,1351.2 	"/>
</g>
<g>
	<g>
		<g>
			<g>
				<polygon class="st5" points="1089.3,1242.2 1230.5,1323.7 1089.3,1405.2 948.2,1323.7 				"/>
				<polygon class="st6" points="1089.3,1405.2 1089.3,1432.7 1230.5,1351.2 1230.5,1323.7 				"/>
				<polygon class="st7" points="948.2,1351.2 948.2,1323.7 1089.3,1405.2 1089.3,1432.7 				"/>
			</g>
		</g>
		<g>
			<g>
				<polygon class="st2" points="1196,1276.3 1054.8,1357.8 1089.3,1377.7 1230.5,1296.2 				"/>
				<polygon class="st3" points="1089.3,1377.7 1089.3,1405.2 1230.5,1323.7 1230.5,1296.2 				"/>
				<polygon class="st4" points="1054.8,1357.8 1089.3,1377.7 1089.3,1405.2 1054.8,1385.3 				"/>
			</g>
		</g>
	</g>
	<polygon class="st1" points="1054.8,1412.8 1054.8,1385.3 1089.3,1405.2 1089.3,1432.7 1089.3,1486.7 948.2,1405.2 948.2,1351.2 	
		"/>
	<polygon class="st0" points="1230.5,1323.7 1230.5,1351.2 1230.5,1405.2 1089.3,1486.7 1089.3,1432.7 1089.3,1405.2 	"/>
</g>
<g>
	<g>
		<g>
			<g>
				<polygon class="st5" points="171.3,1242.2 312.5,1323.7 171.3,1405.2 30.2,1323.7 				"/>
				<polygon class="st6" points="171.3,1405.2 171.3,1432.7 312.5,1351.2 312.5,1323.7 				"/>
				<polygon class="st7" points="30.2,1351.2 30.2,1323.7 171.3,1405.2 171.3,1432.7 				"/>
			</g>
		</g>
		<g>
			<polygon class="st2" points="64.7,1276.2 205.8,1357.7 171.3,1377.7 30.2,1296.1 			"/>
			<polygon class="st4" points="30.2,1323.7 30.2,1296.2 171.3,1377.7 171.3,1405.2 			"/>
			<polygon class="st3" points="205.8,1357.8 171.3,1377.7 171.3,1405.2 205.8,1385.3 			"/>
		</g>
	</g>
	<polygon class="st0" points="205.8,1412.8 205.8,1385.3 171.3,1405.2 171.3,1432.7 171.3,1486.7 312.5,1405.2 312.5,1351.2 	"/>
	<g>
		<polygon class="st1" points="30.2,1323.7 30.2,1351.2 30.2,1405.2 171.3,1486.7 171.3,1432.7 171.3,1405.2 		"/>
	</g>
</g>
<g>
	<g>
		<g>
			<g>
				<polygon class="st5" points="171.3,648.2 312.5,729.7 171.3,811.2 30.2,729.7 				"/>
				<polygon class="st6" points="171.3,811.2 171.3,838.7 312.5,757.2 312.5,729.7 				"/>
				<polygon class="st7" points="30.2,757.2 30.2,729.7 171.3,811.2 171.3,838.7 				"/>
			</g>
		</g>
		<g>
			<g>
				<polygon class="st2" points="64.7,682.3 205.8,763.8 171.3,783.7 30.2,702.2 				"/>
				<polygon class="st4" points="30.2,729.8 30.2,702.3 171.3,783.8 171.3,811.3 				"/>
				<polygon class="st3" points="205.8,763.9 171.3,783.8 171.3,811.3 205.8,791.4 				"/>
			</g>
		</g>
		<g>
			<g>
				<polygon class="st2" points="171.3,620.6 312.5,702.1 278,722.1 136.8,640.6 				"/>
				<polygon class="st4" points="136.8,668.1 136.8,640.6 278,722.1 278,749.6 				"/>
				<polygon class="st3" points="312.5,702.2 278,722.1 278,749.6 312.5,729.7 				"/>
			</g>
		</g>
	</g>
	<polygon class="st0" points="312.5,757.2 312.5,729.7 278,749.7 278,777.2 205.8,818.8 205.8,791.3 171.3,811.2 171.3,838.7 
		171.3,892.7 312.5,811.2 312.5,757.2 	"/>
	<g>
		<polygon class="st1" points="30.2,729.7 30.2,757.2 30.2,811.2 171.3,892.7 171.3,838.7 171.3,811.2 		"/>
	</g>
</g>
<g>
	<g>
		<g>
			<g>
				<polygon class="st5" points="474,647.9 615.2,729.4 474,810.9 332.8,729.4 				"/>
				<polygon class="st6" points="474,810.9 474,838.4 615.2,756.9 615.2,729.4 				"/>
				<polygon class="st7" points="332.8,756.9 332.8,729.4 474,810.9 474,838.4 				"/>
			</g>
		</g>
		<g>
			<g>
				<polygon class="st2" points="580.6,682 439.5,763.5 474,783.4 615.2,701.9 				"/>
				<polygon class="st3" points="474,783.4 474,810.9 615.2,729.4 615.2,701.9 				"/>
				<polygon class="st4" points="439.5,763.5 474,783.4 474,810.9 439.5,791 				"/>
			</g>
		</g>
		<g>
			<g>
				<polygon class="st2" points="474,620.6 332.8,702.1 367.4,722.1 508.5,640.6 				"/>
				<polygon class="st3" points="367.4,722.1 367.4,749.6 508.5,668.1 508.5,640.6 				"/>
				<polygon class="st4" points="332.8,702.1 367.4,722.1 367.4,749.6 332.8,729.6 				"/>
			</g>
		</g>
	</g>
	<polygon class="st1" points="474,838.4 474,810.9 439.5,790.9 439.5,818.4 367.4,776.8 367.4,749.4 332.8,729.5 332.8,756.9 
		332.8,756.9 332.8,810.9 474,892.4 474,838.4 	"/>
	<polygon class="st0" points="615.2,729.4 615.2,756.9 615.2,810.9 474,892.4 474,838.4 474,810.9 	"/>
</g>
<g>
	<g>
		<g>
			<g>
				<polygon class="st5" points="474,1546.1 615.2,1627.6 474,1709.1 332.8,1627.6 				"/>
				<polygon class="st6" points="474,1709.1 474,1736.6 615.2,1655.1 615.2,1627.6 				"/>
				<polygon class="st7" points="332.8,1655.1 332.8,1627.6 474,1709.1 474,1736.6 				"/>
			</g>
		</g>
		<g>
			<g>
				<path class="st2" d="M474,1681.8l34.5-19.9h0c-21.4-12.3-47.7-12.3-69,0h0L474,1681.8z"/>
				<polygon class="st3" points="508.5,1661.9 474,1681.8 474,1709.3 508.5,1689.4 				"/>
				<polygon class="st4" points="439.5,1661.9 474,1681.8 474,1709.3 439.5,1689.4 				"/>
			</g>
		</g>
	</g>
	<polygon class="st0" points="508.5,1716.7 508.5,1689.2 474,1709.1 474,1736.6 474,1790.6 615.2,1709.1 615.2,1655.1 	"/>
	<polygon class="st1" points="473.8,1736.5 473.8,1709.1 439.3,1689.2 439.3,1716.6 332.8,1655.1 332.8,1709.1 474,1790.6 
		474,1736.6 	"/>
</g>
<g>
	<g>
		<g>
			<g>
				<polygon class="st5" points="1089.3,1546.1 1230.5,1627.6 1089.3,1709.1 948.2,1627.6 				"/>
				<polygon class="st6" points="1089.3,1709.1 1089.3,1736.6 1230.5,1655.1 1230.5,1627.6 				"/>
				<polygon class="st7" points="948.2,1655.1 948.2,1627.6 1089.3,1709.1 1089.3,1736.6 				"/>
			</g>
			<g>
				<polygon class="st1" points="1089.3,1790.6 1089.3,1736.6 948.2,1655.1 948.2,1709.1 				"/>
			</g>
		</g>
		<g>
			<g>
				<path class="st4" d="M1196,1647.5l34.5-19.9l-34.5-19.9l0,0c-1.9,1.1-3.5,2.4-4.9,3.8l-6.6-11.4v27.5v0
					C1184.5,1635.4,1188.3,1643.1,1196,1647.5L1196,1647.5L1196,1647.5L1196,1647.5L1196,1647.5z"/>
				<polygon class="st3" points="1230.5,1600.1 1196,1620 1196,1647.5 1230.5,1627.6 				"/>
				<path class="st2" d="M1196,1620l34.5-19.9l-34.5-19.9l0,0C1180.6,1589,1180.6,1611.2,1196,1620L1196,1620z"/>
			</g>
		</g>
	</g>
	<polygon class="st0" points="1230.5,1655.1 1230.5,1627.6 1196,1647.6 1196,1675.1 1089.3,1736.6 1089.3,1790.6 1230.5,1709.1 
		1230.5,1655.1 	"/>
</g>
<g>
	<g>
		<g>
			<g>
				<polygon class="st5" points="783.3,1546.1 924.5,1627.6 783.3,1709.1 642.2,1627.6 				"/>
				<polygon class="st6" points="783.3,1709.1 783.3,1736.6 924.5,1655.1 924.5,1627.6 				"/>
				<polygon class="st7" points="642.2,1655.1 642.2,1627.6 783.3,1709.1 783.3,1736.6 				"/>
			</g>
			<g>
				<polygon class="st0" points="783.3,1790.6 783.3,1736.6 924.5,1655.1 924.5,1709.1 				"/>
			</g>
		</g>
		<g>
			<g>
				<path class="st3" d="M688.2,1627.6v-27.5l-6.6,11.4c-1.4-1.4-3.1-2.7-4.9-3.8l0,0l-34.5,19.9l34.5,19.9v0l0,0l0,0l0,0
					C684.4,1643.1,688.2,1635.4,688.2,1627.6L688.2,1627.6z"/>
				<polygon class="st4" points="642.2,1600.1 676.7,1620.1 676.7,1647.6 642.2,1627.6 				"/>
				<path class="st2" d="M676.7,1620.1l-34.5-19.9l34.5-19.9l0,0C692,1589.1,692,1611.2,676.7,1620.1L676.7,1620.1z"/>
			</g>
		</g>
	</g>
	<polygon class="st1" points="642.2,1655.1 642.2,1627.6 676.7,1647.6 676.7,1675.1 783.3,1736.6 783.3,1790.6 642.2,1709.1 
		642.2,1655.1 	"/>
</g>
<g>
	<g>
		<polygon class="st1" points="1398.6,217.4 1398.6,298.9 1257.5,217.4 1257.5,135.9 		"/>
		<g>
			<polygon class="st4" points="1398.6,189.9 1398.6,217.4 1257.5,135.9 1257.5,108.4 			"/>
			<g>
				<polygon class="st2" points="1257.5,108.4 1398.7,189.9 1433.2,170 1505.3,128.4 1506.4,127.7 1539.8,108.4 1398.7,26.9 
					1365.3,46.2 1364.1,46.8 1294.7,86.9 1292,88.5 				"/>
				<polygon class="st8" points="1292,88.5 1433.2,170 1505.3,128.4 1364.1,46.8 1294.7,86.9 				"/>
			</g>
			<g>
				<polygon class="st3" points="1433.2,170 1398.7,189.9 1398.6,217.4 1433.2,197.5 				"/>
				<polygon class="st3" points="1505.3,128.4 1505.3,155.9 1539.8,135.9 1539.8,108.4 				"/>
			</g>
		</g>
	</g>
	<polygon class="st0" points="1433.2,197.5 1433.2,170 1505.3,128.4 1505.3,155.9 1539.8,135.9 1539.8,217.4 1398.6,298.9 
		1398.6,217.4 	"/>
</g>
<g>
	<g>
		<g>
			<g>
				<polygon class="st2" points="1398.6,323.6 1539.8,405.1 1398.6,486.6 1257.5,405.1 				"/>
				<path class="st8" d="M1292,425.1L1292,425.1c66-38.1,147.3-38.1,213.3,0l0,0l-72.1,41.6l0,0c-21.4-12.3-47.7-12.3-69,0l0,0
					L1292,425.1z"/>
			</g>
			<g>
				<polygon class="st4" points="1364.1,466.7 1398.6,486.6 1398.6,514.1 1364.1,494.2 				"/>
				<polygon class="st4" points="1292,425.1 1292,452.6 1257.5,432.6 1257.5,405.1 				"/>
			</g>
			<g>
				<polygon class="st3" points="1433.2,466.7 1398.7,486.6 1398.6,514.1 1433.2,494.2 				"/>
				<polygon class="st3" points="1505.3,425.1 1505.3,452.6 1539.8,432.6 1539.8,405.1 				"/>
			</g>
		</g>
	</g>
	<polygon class="st0" points="1433.2,494.2 1433.2,466.7 1505.3,425.1 1505.3,452.6 1539.8,432.6 1539.8,514.1 1398.6,595.6 
		1398.6,514.1 	"/>
	<polygon class="st1" points="1364.1,494.2 1364.1,466.7 1292,425.1 1292,452.6 1257.5,432.6 1257.5,514.1 1398.6,595.6 
		1398.6,514.1 	"/>
</g>
<g>
	<g>
		<g>
			<g>
				<polygon class="st2" points="1710.3,323.6 1851.5,405.1 1710.3,486.6 1569.2,405.1 				"/>
				<path class="st8" d="M1744.9,466.7L1744.9,466.7c-47.4-27.4-47.4-95.8,0-123.1l0,0l72.1,41.6v0c-15.3,8.9-15.3,31,0,39.9l0,0
					L1744.9,466.7z"/>
			</g>
			<g>
				<polygon class="st3" points="1744.8,466.7 1710.3,486.6 1710.3,514.1 1744.8,494.2 				"/>
				<polygon class="st3" points="1817,425.1 1817,452.6 1851.5,432.6 1851.5,405.1 				"/>
			</g>
			<polygon class="st4" points="1569.2,432.6 1569.2,405.1 1710.3,486.6 1710.3,514.2 			"/>
		</g>
		<g>
			<polygon class="st1" points="1569.2,514.2 1569.2,432.6 1710.3,514.2 1710.3,595.7 			"/>
		</g>
	</g>
	<polygon class="st0" points="1744.9,494.2 1744.9,466.7 1817,425.1 1817,452.6 1851.5,432.6 1851.5,514.1 1710.3,595.6 
		1710.3,514.1 	"/>
</g>
<g>
	<g>
		<g>
			<g>
				<polygon class="st2" points="2016.3,323.6 2157.5,405.1 2016.3,486.6 1875.2,405.1 				"/>
				<path class="st8" d="M1909.7,425.1L1909.7,425.1c15.3-8.9,15.3-31,0-39.9l0,0l72.1-41.6l0,0c47.4,27.4,47.4,95.8,0,123.1l0,0
					L1909.7,425.1z"/>
			</g>
			<g>
				<polygon class="st4" points="1981.8,466.7 2016.3,486.6 2016.3,514.1 1981.8,494.2 				"/>
				<polygon class="st4" points="1909.7,425.1 1909.7,452.6 1875.2,432.6 1875.2,405.1 				"/>
			</g>
			<polygon class="st3" points="2016.3,486.6 2016.3,514.2 2157.5,432.6 2157.5,405.1 			"/>
		</g>
		<g>
			<polygon class="st0" points="2016.3,514.2 2016.3,595.7 2157.5,514.2 2157.5,432.6 			"/>
		</g>
	</g>
	<polygon class="st1" points="1981.8,494.2 1981.8,466.7 1909.7,425.1 1909.7,452.6 1875.2,432.6 1875.2,514.1 2016.3,595.6 
		2016.3,514.1 	"/>
</g>
<g>
	<g>
		<g>
			<g>
				<polygon class="st2" points="1398.6,620.6 1539.8,702.1 1398.6,783.6 1257.5,702.1 				"/>
				<path class="st8" d="M1364.1,640.6L1364.1,640.6c21.4,12.3,47.7,12.3,69,0l0,0l72.1,41.6l0,0c-15.3,8.9-15.3,31,0,39.9l0,0
					l-72.1,41.6L1292,682.2L1364.1,640.6z"/>
			</g>
			<g>
				<polygon class="st3" points="1433.2,763.7 1398.7,783.6 1398.6,811.1 1433.2,791.2 				"/>
				<polygon class="st3" points="1505.3,722.1 1505.3,749.6 1539.8,729.6 1539.8,702.1 				"/>
			</g>
			<polygon class="st4" points="1257.5,729.6 1257.5,702.1 1398.6,783.6 1398.6,811.2 			"/>
		</g>
		<g>
			<polygon class="st1" points="1257.5,811.2 1257.5,729.6 1398.6,811.2 1398.6,892.7 			"/>
		</g>
	</g>
	<polygon class="st0" points="1433.2,791.1 1433.2,763.6 1505.3,722 1505.3,749.5 1539.8,729.5 1539.8,811 1398.6,892.5 1398.6,811 
			"/>
</g>
<g>
	<g>
		<g>
			<polygon class="st2" points="2322.3,620.6 2463.5,702.1 2322.3,783.6 2181.2,702.1 			"/>
			<path class="st8" d="M2287.8,763.7L2287.8,763.7c21.4-12.3,47.7-12.3,69,0v0l72.1-41.6l0,0c-15.3-8.9-15.3-31,0-39.9l0,0
				l-72.1-41.6l-141.1,81.5L2287.8,763.7z"/>
		</g>
		<g>
			<polygon class="st4" points="2287.8,763.7 2322.3,783.7 2322.3,811.2 2287.8,791.2 			"/>
			<polygon class="st4" points="2215.7,722.1 2215.7,749.6 2181.2,729.7 2181.2,702.2 			"/>
		</g>
		<g>
			<polygon class="st3" points="2356.9,763.7 2322.3,783.7 2322.3,811.2 2356.9,791.2 			"/>
			<polygon class="st3" points="2429,722.1 2429,749.6 2463.5,729.7 2463.5,702.2 			"/>
		</g>
		<g>
			<polygon class="st0" points="2429,749.6 2429,722.1 2356.9,763.7 2356.9,791.2 2322.3,811.2 2322.3,892.7 2463.5,811.2 
				2463.5,729.7 			"/>
		</g>
	</g>
	<polygon class="st1" points="2287.8,791.2 2287.8,763.7 2215.7,722.1 2215.7,749.6 2181.2,729.7 2181.2,811.2 2322.3,892.7 
		2322.3,811.2 	"/>
</g>
<g>
	<g>
		<g>
			<polygon class="st2" points="2157.5,108.4 2016.3,189.9 1981.8,170 1909.7,128.4 1908.6,127.7 1875.2,108.4 2016.3,26.9 
				2049.7,46.2 2050.9,46.8 2120.3,86.9 2123,88.5 			"/>
			<path class="st8" d="M2123,88.5l-2.7-1.6l-69.4-40.1v0c-21.4,12.3-47.7,12.3-69,0l0,0l-69.4,40.1l-2.7,1.6l0,0
				c15.3,8.9,15.3,31,0,39.9l0,0l72.1,41.6l0,0c21.4-12.3,47.7-12.3,69,0v0l72.1-41.6l0,0C2107.6,119.5,2107.6,97.3,2123,88.5
				L2123,88.5z"/>
		</g>
		<g>
			<polygon class="st4" points="1981.8,170 2016.3,189.9 2016.3,217.4 1981.8,197.5 			"/>
			<polygon class="st4" points="1909.7,128.4 1909.7,155.9 1875.2,135.9 1875.2,108.4 			"/>
		</g>
		<g>
			<polygon class="st3" points="2050.9,170 2016.3,189.9 2016.3,217.4 2050.9,197.5 			"/>
			<polygon class="st3" points="2123,128.4 2123,155.9 2157.5,135.9 2157.5,108.4 			"/>
		</g>
	</g>
	<polygon class="st1" points="1981.8,197.5 1981.8,170 1909.7,128.4 1909.7,155.9 1875.2,135.9 1875.2,217.4 2016.3,298.9 
		2016.3,217.4 	"/>
	<polygon class="st0" points="2050.9,197.5 2050.9,170 2123,128.4 2123,155.9 2157.5,135.9 2157.5,217.4 2016.3,298.9 2016.3,217.4 
			"/>
</g>
<g>
	<g>
		<g>
			<g>
				<polygon class="st2" points="2322.3,917.6 2463.5,999.1 2322.3,1080.6 2181.2,999.1 				"/>
				<polygon class="st8" points="2287.8,1060.7 2394.4,999.1 2322.3,957.5 2215.7,1019.1 				"/>
			</g>
			<polygon class="st3" points="2322.3,1080.7 2322.3,1108.2 2463.5,1026.7 2463.5,999.2 			"/>
			<g>
				<polygon class="st4" points="2287.9,1060.8 2322.4,1080.7 2322.4,1108.2 2287.9,1088.3 				"/>
				<polygon class="st4" points="2215.8,1019.1 2215.8,1046.6 2181.3,1026.7 2181.3,999.2 				"/>
			</g>
		</g>
		<g>
			<polygon class="st0" points="2322.3,1108.2 2322.3,1189.7 2463.5,1108.2 2463.5,1026.7 			"/>
		</g>
	</g>
	<polygon class="st1" points="2287.9,1088.3 2287.9,1060.8 2215.8,1019.2 2215.8,1046.7 2181.3,1026.8 2181.3,1108.3 2322.4,1189.8 
		2322.4,1108.3 	"/>
</g>
<g>
	<g>
		<g>
			<g>
				<polygon class="st2" points="2016.3,917.6 2157.5,999.1 2016.3,1080.6 1875.2,999.1 				"/>
				<polygon class="st8" points="2050.9,1060.7 1944.2,999.1 2016.3,957.5 2123,1019.1 				"/>
			</g>
			<polygon class="st4" points="1875.2,1026.8 1875.2,999.2 2016.3,1080.8 2016.3,1108.3 			"/>
			<g>
				<polygon class="st3" points="2050.9,1060.8 2016.3,1080.8 2016.3,1108.3 2050.9,1088.3 				"/>
				<polygon class="st3" points="2123,1019.2 2123,1046.7 2157.5,1026.7 2157.5,999.2 				"/>
			</g>
		</g>
		<g>
			<polygon class="st1" points="1875.2,1108.3 1875.2,1026.8 2016.3,1108.3 2016.3,1189.8 			"/>
		</g>
	</g>
	<polygon class="st0" points="2123,1046.7 2123,1019.2 2050.8,1060.8 2050.8,1088.3 2016.3,1108.3 2016.3,1189.8 2157.5,1108.3 
		2157.5,1026.8 	"/>
</g>
<g>
	<polygon class="st0" points="1710.3,217.4 1710.3,298.9 1851.5,217.4 1851.5,135.9 	"/>
	<g>
		<polygon class="st3" points="1710.3,189.9 1710.3,217.4 1851.5,135.9 1851.5,108.4 		"/>
		<g>
			<polygon class="st2" points="1851.5,108.4 1710.3,189.9 1675.8,170 1603.7,128.4 1602.6,127.7 1569.2,108.4 1710.3,26.9 
				1743.7,46.2 1744.9,46.8 1814.3,86.9 1817,88.5 			"/>
			<polygon class="st8" points="1817,88.5 1675.8,170 1603.7,128.4 1744.9,46.8 1814.3,86.9 			"/>
		</g>
		<g>
			<polygon class="st4" points="1675.8,170 1710.3,189.9 1710.3,217.4 1675.8,197.5 			"/>
			<polygon class="st4" points="1603.7,128.4 1603.7,155.9 1569.2,135.9 1569.2,108.4 			"/>
			<polygon class="st1" points="1675.8,197.5 1675.8,170 1603.7,128.4 1603.7,155.9 1569.2,135.9 1569.2,217.4 1710.3,298.9 
				1710.3,217.4 			"/>
		</g>
	</g>
</g>
</svg>
