<?xml version="1.0" encoding="utf-8"?>
<!-- Generator: Adobe Illustrator 22.0.1, SVG Export Plug-In . SVG Version: 6.00 Build 0)  -->
<svg version="1.1" id="Слой_1" xmlns="http://www.w3.org/2000/svg" xmlns:xlink="http://www.w3.org/1999/xlink" x="0px" y="0px"
	 viewBox="0 0 607.2 614" style="enable-background:new 0 0 607.2 614;" xml:space="preserve">
<style type="text/css">
	.st0{fill:#9C9C9C;stroke:#000000;stroke-width:8;stroke-linejoin:round;stroke-miterlimit:10;}
	.st1{fill:#889191;stroke:#000000;stroke-width:8;stroke-linejoin:round;stroke-miterlimit:10;}
	.st2{fill:#A8A8A8;stroke:#000000;stroke-width:8;stroke-linejoin:round;stroke-miterlimit:10;}
	.st3{fill:#C2C2C2;stroke:#000000;stroke-width:8;stroke-linejoin:round;stroke-miterlimit:10;}
	.st4{fill:#B85042;stroke:#000000;stroke-width:8;stroke-linejoin:round;stroke-miterlimit:10;}
	.st5{fill:#9E4539;stroke:#000000;stroke-width:8;stroke-linejoin:round;stroke-miterlimit:10;}
	.st6{fill:#CD683D;stroke:#000000;stroke-width:8;stroke-linejoin:round;stroke-miterlimit:10;}
	.st7{fill:#E6904E;stroke:#000000;stroke-width:8;stroke-linejoin:round;stroke-miterlimit:10;}
	.st8{fill:#9BA6A6;stroke:#000000;stroke-width:8;stroke-linejoin:round;stroke-miterlimit:10;}
	.st9{opacity:0.6;fill:#1EBC73;stroke:#000000;stroke-width:8;stroke-linejoin:round;stroke-miterlimit:10;}
	.st10{fill:#1EBC73;stroke:#000000;stroke-width:8;stroke-linejoin:round;stroke-miterlimit:10;}
	.st11{fill:#3ED691;stroke:#000000;stroke-width:8;stroke-linejoin:round;stroke-miterlimit:10;}
</style>
<g>
	<path class="st0" d="M86.5,170.3l-7.7-23.2h-7.7l-7.7,23.2H86.5z"/>
	<polyline class="st1" points="86.5,170.3 101.9,154.9 96.7,139.4 78.8,147.1 86.5,170.3 	"/>
	<polygon class="st2" points="47.9,154.9 63.3,170.3 71.1,147.1 53.1,139.4 	"/>
	<path class="st3" d="M94.2,131.7L78.8,124h-7.7l-15.4,7.7c-0.6,1.8-1.2,3.6-1.7,5.4l-0.8,2.3l17.9,7.7h7.7l17.9-7.7l-0.8-2.3
		C95.4,135.3,94.9,133.5,94.2,131.7z"/>
</g>
<g>
	<g>
		<path class="st4" d="M86.5,343.9l-7.7-23.2h-7.7l-7.7,23.2H86.5z"/>
		<polyline class="st5" points="86.5,343.9 101.9,328.4 96.7,313 78.8,320.7 86.5,343.9 		"/>
		<polygon class="st6" points="47.9,328.4 63.3,343.9 71.1,320.7 53.1,313 		"/>
		<path class="st7" d="M94.2,305.3l-15.4-7.7h-7.7l-15.4,7.7c-0.6,1.8-1.2,3.6-1.7,5.4l-0.8,2.3l17.9,7.7h7.7l17.9-7.7l-0.8-2.3
			C95.4,308.9,94.9,307.1,94.2,305.3z"/>
	</g>
</g>
<g>
	<g>
		<polygon class="st1" points="385.4,154.9 416.3,124.1 406,93.2 370,108.6 		"/>
		<polygon class="st0" points="370,108.6 354.5,108.6 339.1,154.9 385.4,154.9 		"/>
		<path class="st3" d="M404.1,87.4c-1.2-3.2-2.3-6.4-3.3-9.6L370,62.3h-15.4l-30.9,15.4c-1,3.2-2.1,6.4-3.1,9.6
			c-0.3,0.5-0.5,1-0.6,1.5l-1.5,4.2h0.2l35.9,15.4H370L406,93.2l-1.5-4.2C404.4,88.4,404.2,87.9,404.1,87.4z"/>
		<polygon class="st2" points="333.9,139.3 339.2,154.9 354.8,108 318.4,92.4 307.9,123.7 315.7,123.7 331.3,131.5 		"/>
	</g>
	<g>
		<g>
			<path class="st0" d="M323.7,170.3l-7.7-23.2h-7.7l-7.7,23.2H323.7z"/>
			<polyline class="st1" points="323.7,170.3 339.1,154.9 333.9,139.4 315.9,147.1 323.7,170.3 			"/>
			<polygon class="st2" points="285.1,154.9 300.5,170.3 308.2,147.1 290.3,139.4 			"/>
			<path class="st3" d="M331.4,131.7l-15.4-7.7h-7.7l-15.4,7.7c-0.6,1.8-1.2,3.6-1.7,5.4l-0.8,2.3l17.9,7.7h7.7l17.9-7.7l-0.8-2.3
				C332.6,135.3,332,133.5,331.4,131.7z"/>
		</g>
	</g>
</g>
<g>
	<g>
		<polyline class="st1" points="526.2,108.4 541.8,155.2 573.1,124 562.7,92.7 526.2,108.4 		"/>
		<polyline class="st1" points="541.8,69.3 540.5,65.4 522.3,73.2 530.1,96.6 545.7,81 541.8,69.3 		"/>
		<polygon class="st8" points="496.3,65.4 495.1,69.3 491,81 506.7,96.6 514.5,73.2 		"/>
		<polyline class="st0" points="541.8,155.2 526.2,108.4 510.6,108.4 494.9,155.2 541.8,155.2 		"/>
		<polygon class="st0" points="514.5,73.2 506.7,96.6 530.1,96.6 522.3,73.2 		"/>
		<path class="st3" d="M495.1,69.3l-15.8,7.8c-1,3.3-2.1,6.5-3.1,9.8c-0.3,0.5-0.5,1-0.6,1.6l-1.6,4.3h0.2l36.3,15.6h15.6l36.5-15.6
			l-1.6-4.3c-0.1-0.5-0.3-1-0.4-1.6c-1.2-3.3-2.3-6.5-3.3-9.8l-15.6-7.8l3.9,11.7l-15.6,15.6h-23.4L491,81L495.1,69.3"/>
		<path class="st3" d="M497.1,63l-0.8,2.3l18.2,7.8h7.8l18.2-7.8l-0.8-2.3c-0.5-1.8-1.1-3.6-1.8-5.5l-15.6-7.8h-7.8l-15.6,7.8
			C498.2,59.4,497.6,61.2,497.1,63z"/>
		<polygon class="st2" points="489.7,139.6 494.9,155.2 510.6,108.4 474.2,92.7 463.7,124 471.5,124 487.1,131.8 		"/>
	</g>
	<g>
		<g>
			<path class="st0" d="M479.5,170.3l-7.7-23.2h-7.7l-7.7,23.2H479.5z"/>
			<polyline class="st1" points="479.5,170.3 494.9,154.9 489.7,139.4 471.8,147.1 479.5,170.3 			"/>
			<polygon class="st2" points="440.9,154.9 456.4,170.3 464.1,147.1 446.1,139.4 			"/>
			<path class="st3" d="M487.2,131.7l-15.4-7.7h-7.7l-15.4,7.7c-0.6,1.8-1.2,3.6-1.7,5.4l-0.8,2.3l17.9,7.7h7.7l17.9-7.7l-0.8-2.3
				C488.4,135.3,487.9,133.5,487.2,131.7z"/>
		</g>
	</g>
</g>
<g>
	<path class="st0" d="M218.2,170.3L202.8,124h-15.4l-15.4,46.3H218.2z"/>
	<polyline class="st1" points="218.2,170.3 249.1,139.4 238.7,108.5 202.8,124 218.2,170.3 	"/>
	<polygon class="st2" points="141.1,139.4 171.9,170.3 187.4,124 151.5,108.5 	"/>
	<path class="st3" d="M233.7,93.1l-30.9-15.4h-15.4l-30.9,15.4c-1.3,3.6-2.4,7.2-3.5,10.8l-1.5,4.6l35.9,15.4h15.4l35.9-15.4
		l-1.5-4.6C236.1,100.3,235,96.7,233.7,93.1z"/>
</g>
<g>
	<g>
		<polygon class="st5" points="385.4,328.5 416.3,297.6 406,266.8 370,282.2 		"/>
		<polygon class="st4" points="370,282.2 354.5,282.2 339.1,328.5 385.4,328.5 		"/>
		<path class="st7" d="M404.1,261c-1.2-3.2-2.3-6.4-3.3-9.6L370,235.9h-15.4l-30.9,15.4c-1,3.2-2.1,6.4-3.1,9.6
			c-0.3,0.5-0.5,1-0.6,1.5l-1.5,4.2h0.2l35.9,15.4H370l36.1-15.4l-1.5-4.2C404.4,262,404.2,261.5,404.1,261z"/>
		<polygon class="st6" points="333.9,312.9 339.2,328.5 354.8,281.6 318.4,266 307.9,297.3 315.7,297.3 331.3,305.1 		"/>
	</g>
	<g>
		<g>
			<path class="st4" d="M323.7,343.9l-7.7-23.2h-7.7l-7.7,23.2H323.7z"/>
			<polyline class="st5" points="323.7,343.9 339.1,328.4 333.9,313 315.9,320.7 323.7,343.9 			"/>
			<polygon class="st6" points="285.1,328.4 300.5,343.9 308.2,320.7 290.3,313 			"/>
			<path class="st7" d="M331.4,305.3l-15.4-7.7h-7.7l-15.4,7.7c-0.6,1.8-1.2,3.6-1.7,5.4l-0.8,2.3l17.9,7.7h7.7l17.9-7.7l-0.8-2.3
				C332.6,308.9,332,307.1,331.4,305.3z"/>
		</g>
	</g>
</g>
<g>
	<g>
		<polyline class="st5" points="526.2,281.9 541.8,328.8 573.1,297.6 562.7,266.3 526.2,281.9 		"/>
		<polyline class="st5" points="541.8,242.9 540.5,239 522.3,246.8 530.1,270.2 545.7,254.6 541.8,242.9 		"/>
		<polygon class="st6" points="496.3,239 495.1,242.9 491,254.6 506.7,270.2 514.5,246.8 		"/>
		<polyline class="st4" points="541.8,328.8 526.2,281.9 510.6,281.9 494.9,328.8 541.8,328.8 		"/>
		<polygon class="st4" points="514.5,246.8 506.7,270.2 530.1,270.2 522.3,246.8 		"/>
		<path class="st7" d="M495.1,242.9l-15.8,7.8c-1,3.3-2.1,6.5-3.1,9.8c-0.3,0.5-0.5,1-0.6,1.6l-1.6,4.3h0.2l36.3,15.6h15.6
			l36.5-15.6l-1.6-4.3c-0.1-0.5-0.3-1-0.4-1.6c-1.2-3.3-2.3-6.5-3.3-9.8l-15.6-7.8l3.9,11.7l-15.6,15.6h-23.4L491,254.6L495.1,242.9
			"/>
		<path class="st7" d="M497.1,236.6l-0.8,2.3l18.2,7.8h7.8l18.2-7.8l-0.8-2.3c-0.5-1.8-1.1-3.6-1.8-5.5l-15.6-7.8h-7.8l-15.6,7.8
			C498.2,233,497.6,234.8,497.1,236.6z"/>
		<polygon class="st6" points="489.7,313.2 494.9,328.8 510.6,281.9 474.2,266.3 463.7,297.6 471.5,297.6 487.1,305.4 		"/>
	</g>
	<g>
		<g>
			<path class="st4" d="M479.5,343.9l-7.7-23.2h-7.7l-7.7,23.2H479.5z"/>
			<polyline class="st5" points="479.5,343.9 494.9,328.4 489.7,313 471.8,320.7 479.5,343.9 			"/>
			<polygon class="st6" points="440.9,328.4 456.4,343.9 464.1,320.7 446.1,313 			"/>
			<path class="st7" d="M487.2,305.3l-15.4-7.7h-7.7l-15.4,7.7c-0.6,1.8-1.2,3.6-1.7,5.4l-0.8,2.3l17.9,7.7h7.7l17.9-7.7l-0.8-2.3
				C488.4,308.9,487.9,307.1,487.2,305.3z"/>
		</g>
	</g>
</g>
<g>
	<g>
		<path class="st4" d="M218.2,343.9l-15.4-46.3h-15.4l-15.4,46.3H218.2z"/>
		<polyline class="st5" points="218.2,343.9 249.1,313 238.7,282.1 202.8,297.6 218.2,343.9 		"/>
		<polygon class="st6" points="141.1,313 171.9,343.9 187.4,297.6 151.5,282.1 		"/>
		<path class="st7" d="M233.7,266.7l-30.9-15.4h-15.4l-30.9,15.4c-1.3,3.6-2.4,7.2-3.5,10.8l-1.5,4.6l35.9,15.4h15.4l35.9-15.4
			l-1.5-4.6C236.1,273.9,235,270.3,233.7,266.7z"/>
	</g>
</g>
<g>
	<ellipse class="st9" cx="71" cy="570.7" rx="20.3" ry="10.9"/>
	<path class="st5" d="M63.3,558.6v5.5c0,2.1,0.7,3.8,2.1,5.2c1.6,1.4,3.4,2.1,5.5,2.1h0.2c2.2,0,4-0.7,5.2-2.1
		c1.6-1.4,2.4-3.2,2.4-5.2v-5.5c-2.4,0.8-5,1.2-7.8,1.2C68.2,559.8,65.7,559.4,63.3,558.6z"/>
	<path class="st10" d="M47.9,534.4c0,1.4,0,2.8,0,4c0.2,5.4,2.2,10,6.2,14c0.2,0.2,0.4,0.4,0.7,0.7c2.5,2.7,5.4,4.5,8.5,5.5
		c2.4,0.8,4.9,1.2,7.6,1.2c2.8,0,5.5-0.4,7.8-1.2c3.2-1.1,6.1-2.9,8.8-5.5c0.3-0.3,0.6-0.6,0.9-0.7c3.6-4,5.5-8.6,5.7-14
		c0-1.3,0-2.6,0-4c0-23.6-2.2-43.5-6.6-60c-4.6-16.4-10.1-24.7-16.6-24.7c-6.3,0-11.7,8.2-16.1,24.7
		C50.2,490.9,47.9,510.9,47.9,534.4z"/>
</g>
<g>
	<ellipse class="st9" cx="195.2" cy="565.5" rx="29.9" ry="16.1"/>
	<path class="st5" d="M206.4,551.2c-3.5,1.1-7.2,1.7-11.1,1.7s-7.7-0.6-11.1-1.7v8.3c0,3.2,1,5.8,3.1,7.8c2.2,2.2,4.9,3.3,8.1,3.3
		h0.2c3,0,5.5-1.1,7.6-3.3c2.2-2.1,3.3-4.7,3.3-7.8V551.2z"/>
	<path class="st10" d="M228.9,520.2c0-1.7,0-3.8,0-6.2c0-1.6,0-3.2,0-4.7c-0.3,7-3.6,12.9-9.7,17.8c-1.7,1.6-3.6,2.9-5.5,4
		c-2.4,1.1-4.8,2.1-7.3,2.8c-3.5,0.9-7.2,1.4-11.1,1.4s-7.7-0.5-11.1-1.4c-2.5-0.8-4.7-1.7-6.6-2.6c-2.2-1.1-4.3-2.5-6.2-4.3
		c-6.3-4.9-9.6-10.8-10-17.8c0,1.6,0,3.2,0,4.7c0,2.4,0,4.4,0,6.2c0.3,8.9,3.6,16.4,10,22.8c1.9,1.9,4,3.6,6.2,5
		c1.9,1.3,4.1,2.4,6.6,3.3c3.5,1.1,7.2,1.7,11.1,1.7s7.7-0.6,11.1-1.7c2.5-0.9,5-2.1,7.3-3.6c1.9-1.4,3.7-3,5.5-4.7
		C225.3,536.6,228.6,529,228.9,520.2 M227.9,482.7c-0.3-5.1-0.7-10-1.2-14.7c-0.3-3.6-0.7-7.2-1.2-10.7c-0.2,0-0.2,0.1-0.2,0.2
		c-1.7,1.4-3.8,2.8-6.2,4c-1.7,0.9-3.6,1.7-5.5,2.4c-2.4,0.6-4.8,1.2-7.3,1.7c-3.5,0.6-7.2,0.9-11.1,0.9s-7.7-0.3-11.1-0.9
		c-2.5-0.5-4.7-1-6.6-1.7c-2.2-0.6-4.3-1.4-6.2-2.4c-2.5-1.3-4.6-2.6-6.2-4c-0.2-0.2-0.3-0.2-0.5-0.2c-0.5,3.5-0.9,7-1.2,10.7
		c-0.5,4.7-0.9,9.6-1.2,14.7c1.4,3.6,4.4,6.8,9,9.5c1.9,1.3,4,2.3,6.2,3.1c1.9,0.8,4.1,1.4,6.6,1.9c3.5,0.8,7.2,1.2,11.1,1.2
		s7.7-0.4,11.1-1.2c2.5-0.5,5-1.2,7.3-2.1c1.9-0.8,3.7-1.7,5.5-2.8C223.6,489.5,226.5,486.3,227.9,482.7 M195.2,385.3
		c-1.1,0-2.1,0.2-3.1,0.5c-7.1,2.1-13.2,11.7-18.3,28.9c-0.9,2.5-1.8,5.3-2.6,8.3c-0.5,1.9-0.9,3.8-1.4,5.7c0.5,0.2,0.9,0.3,1.4,0.5
		c0.3,0.2,0.7,0.3,1.2,0.5c1.6,0.5,3.2,0.9,5,1.2c1.9,0.3,4.1,0.6,6.6,0.9c3.5,0.3,7.2,0.5,11.1,0.5s7.7-0.2,11.1-0.5
		c2.5-0.3,5-0.7,7.3-1.2c1.6-0.3,3.1-0.6,4.5-0.9c0.3-0.2,0.6-0.3,0.9-0.5c0.5-0.2,0.9-0.3,1.4-0.5c-0.5-1.9-0.9-3.8-1.4-5.7
		c-0.8-3-1.6-5.8-2.4-8.3c-5.4-17.2-11.5-26.9-18.5-28.9C197.3,385.4,196.3,385.3,195.2,385.3z"/>
	<path class="st11" d="M219.2,492.2c-1.7,1.1-3.6,2.1-5.5,2.8c-2.4,0.9-4.8,1.7-7.3,2.1c-3.5,0.8-7.2,1.2-11.1,1.2
		s-7.7-0.4-11.1-1.2c-2.5-0.5-4.7-1.1-6.6-1.9c-2.2-0.8-4.3-1.8-6.2-3.1c-4.6-2.7-7.6-5.8-9-9.5c-0.5,7.6-0.8,15.3-0.9,23.2
		c0,1.1,0,2.2,0,3.3c0.3,7,3.6,12.9,10,17.8c1.9,1.7,4,3.2,6.2,4.3c1.9,0.9,4.1,1.8,6.6,2.6c3.5,0.9,7.2,1.4,11.1,1.4
		s7.7-0.5,11.1-1.4c2.5-0.8,5-1.7,7.3-2.8c1.9-1.1,3.7-2.5,5.5-4c6.2-4.9,9.4-10.8,9.7-17.8c0-1.1,0-2.2,0-3.3
		c-0.2-8.1-0.5-15.8-0.9-23.2C226.5,486.3,223.6,489.5,219.2,492.2 M177.4,430.8c-1.7-0.3-3.4-0.7-5-1.2c-0.5-0.2-0.9-0.3-1.2-0.5
		c-0.5-0.2-0.9-0.3-1.4-0.5c-2.1,9-3.8,18.6-5.2,28.7c0.2,0,0.3,0.1,0.5,0.2c1.6,1.4,3.6,2.8,6.2,4c1.9,0.9,4,1.7,6.2,2.4
		c1.9,0.6,4.1,1.2,6.6,1.7c3.5,0.6,7.2,0.9,11.1,0.9s7.7-0.3,11.1-0.9c2.5-0.5,5-1,7.3-1.7c1.9-0.6,3.7-1.4,5.5-2.4
		c2.4-1.3,4.4-2.6,6.2-4c0-0.2,0.1-0.2,0.2-0.2c-1.4-10.1-3.1-19.7-5-28.7c-0.5,0.2-0.9,0.3-1.4,0.5c-0.3,0.2-0.6,0.3-0.9,0.5
		c-1.4,0.3-2.9,0.6-4.5,0.9c-2.4,0.5-4.8,0.9-7.3,1.2c-3.5,0.3-7.2,0.5-11.1,0.5s-7.7-0.2-11.1-0.5
		C181.5,431.4,179.3,431.1,177.4,430.8z"/>
</g>
<g>
	<ellipse class="st9" cx="507" cy="564.3" rx="32.2" ry="17.4"/>
	<g>
		<path class="st5" d="M495.2,563.6c3.3,3.3,7.3,5,11.9,5c4.6,0,8.5-1.7,11.6-5c3.3-3.2,5-7,5-11.6v-4c-11.1,1.6-22.1,1.6-33.2,0v4
			C490.5,556.6,492,560.4,495.2,563.6z"/>
		<g>
			<path class="st10" d="M556.5,522.4c-0.1-0.2-0.2-0.5-0.3-0.7l-18.7-31.8c-20.7,8.9-40.9,8.9-60.7,0l-17.5,29.9
				c-0.5,0.9-1,1.7-1.4,2.5c-4.9,9.6-1.5,16.2,10,20c7.6,2.7,15.2,4.6,22.8,5.7c11.1,1.6,22.1,1.6,33.2,0c8.2-1.3,16.4-3.4,24.6-6.4
				C558,538,560.7,531.6,556.5,522.4z"/>
			<path class="st10" d="M523.6,429.9l-0.9-1.9c-9.6,4.9-20.1,4.9-31.3,0l-0.8,1.6l-0.1,0.2l-0.1,0.2L472,467.6
				c23.9,6.5,47.3,6.5,70.4,0L523.6,429.9z"/>
			<path class="st10" d="M526.4,408.7L507,374.4L488,408.7l-0.1,0.1c0,0,0,0,0,0c2.5,0.6,4.9,1,7.3,1.4c8.1,1.2,16.1,1.2,23.9,0.1
				c2.5-0.4,4.9-0.8,7.3-1.4c0,0,0,0,0.1,0L526.4,408.7z"/>
			<path class="st11" d="M472,467.6l-2.5,5.1c-1.8,3.7-1.2,8.1,1.6,11.1l5.6,6.2c19.8,8.9,40,8.9,60.7,0l5.7-6.2
				c2.7-3,3.4-7.3,1.7-10.9l-2.4-5.1C519.3,474.1,495.8,474.1,472,467.6z"/>
			<path class="st11" d="M548.3,541.6c-8.2,3-16.4,5.1-24.6,6.4c-11.1,1.6-22.1,1.6-33.2,0c-7.6-1.1-15.2-3-22.8-5.7
				c-11.5-3.8-14.8-10.5-10-20c33.4,7.4,66.3,7.5,98.7,0.1C560.7,531.6,558,538,548.3,541.6z"/>
			<path class="st11" d="M530.9,416.1c1.7,2.7,1.2,6.2-1.1,8.4l-5.9,5.6c0,0-0.1,0-0.1,0c-0.1,0-0.1,0-0.2,0
				c-11.7,2.7-21.9,2.6-33.3,0l0,0l-5.9-5.7c-2.3-2.2-2.7-5.7-1-8.4l4.5-7.2c0,0,0,0,0,0l0.1-0.1c0,0,0,0,0,0c2.5,0.3,5,0.6,7.4,0.8
				c7.9,0.7,15.8,0.7,23.7,0c2.5-0.2,5-0.5,7.4-0.8h0c0,0,0,0,0,0l0.1,0.1c0,0,0,0-0.1,0L530.9,416.1z"/>
		</g>
	</g>
</g>
<g>
	<ellipse class="st9" cx="350.6" cy="567.7" rx="26" ry="14"/>
	<path class="st5" d="M340.8,566.6c2.7,2.7,6,4.1,9.8,4.1c3.8,0,7-1.4,9.6-4.1c2.7-2.6,4.1-5.8,4.1-9.6v-3.3
		c-9.1,1.3-18.3,1.3-27.4,0v3.3C336.9,560.8,338.2,564,340.8,566.6z"/>
	<g>
		<path class="st10" d="M367.2,489.7l-0.9-1.9c-9.6,4.9-20.1,4.9-31.3,0l-0.8,1.6l-0.1,0.2l-0.1,0.2l-18.4,37.6
			c23.9,6.5,47.3,6.5,70.4,0L367.2,489.7z"/>
		<path class="st10" d="M370,468.5l-19.3-34.3l-19.1,34.2l-0.1,0.1c0,0,0,0,0,0c2.5,0.6,4.9,1,7.3,1.4c8.1,1.2,16.1,1.2,23.9,0.1
			c2.5-0.4,4.9-0.8,7.3-1.4c0,0,0,0,0.1,0L370,468.5z"/>
		<path class="st11" d="M315.5,527.4l-2.5,5.1c-1.8,3.7-1.2,8.1,1.6,11.1l5.6,6.2c19.8,8.9,40,8.9,60.7,0l5.7-6.2
			c2.7-3,3.4-7.3,1.7-10.9l-2.4-5.1C362.9,533.9,339.4,533.9,315.5,527.4z"/>
		<path class="st11" d="M374.5,475.9c1.7,2.7,1.2,6.2-1.1,8.4l-5.9,5.6c0,0-0.1,0-0.1,0c-0.1,0-0.1,0-0.2,0
			c-11.7,2.7-21.9,2.6-33.3,0l0,0l-5.9-5.7c-2.3-2.2-2.7-5.7-1-8.4l4.5-7.2c0,0,0,0,0,0l0.1-0.1c0,0,0,0,0,0c2.5,0.3,5,0.6,7.4,0.8
			c7.9,0.7,15.8,0.7,23.7,0c2.5-0.2,5-0.5,7.4-0.8h0c0,0,0,0,0,0l0.1,0.1c0,0,0,0-0.1,0L374.5,475.9z"/>
	</g>
</g>
</svg>
